<?xml version="1.0" encoding="UTF-8"?>
<svg version="1.1" viewBox="0 0 1600 1024" width="500" height="320" xmlns="http://www.w3.org/2000/svg">
<path transform="translate(529,155)" d="m0 0 23 1 177 10 26 2 5 2 10 1h15l65-10 15-1 4 1 5-1h7l17 9 16 9 6 2 31 1 18 1h22l3-1 26 1 76 4 181 10 14 1 1 1-1 24-3 33 35 3 4 1v15l-2 28-2 5-13 8-21 12h-2l-1 22-11 163-5 71-5 70-2 18-2 45 8 5 1 2v18l-6 9-12 14-9 11-22 26-11 14-9 10-18 22-11 13-9 11-22 26-4 1-22-3-12 14-2 2-8 2-14 8h-7l-132-33-511-128-123-31-6-3-1-1-1-19 5-6 1-6-2-27-3-14-2-7-7-78-14-173-7-77v-5l-18-1-22-3-3-2-2-15-3-29 3-3 13-3 64-11 56-9 7-1-2-19-3-41 7-2 32-4 22-1 58-7 46-6zm332 27m-9 1-4 2 9-1v-1zm-14 2-7 2v2l12-2 4-2z" fill="#111010"/>
<path transform="translate(399,404)" d="m0 0h7l25 5 2 1 34 3 19 4 28 2 52 7 11 2 21 3 25 4 17 4 7-1h14l30 5 62 8 13 2 41 5 24 4 9 3 2 2 1-1h12l29 4 16 2 29 4 4 1v110l-4 6-11 13-6 7h-1v-6l2-10-8 6-5 6-3 5-7 9-22 28-9 11-8 10-11 14-11 15-3 4h-11l-20-4-1-1-20-4-21-4-12-3-8-1-1-1-9-1-5-2-14-2-9-2-68-14-3-1-12-2-40-8-52-11-49-10-13-3-35-7-12-3-1-2-6-106-5-95z" fill="#045837"/>
<path transform="translate(559,349)" d="m0 0h20l15 2 16 1 16 2 17 1 1 3 9-1 51 5 41 5 99 11 25 3 36 4 84 10 22 2 12 2 18 2 21 2 23 3 20 3 4 2 2 18 4 2v25l-3 52-2 8-2 5v14l-1 2-2 22-3 23-6 25-4 8-7 8-14 5-12 4-12 1-8 3-12 1-14 2h-17l-13-4-13-2-5-2h-7l-8 1-7-6-3-10-2-19-1-24-3-25h-1v-71l-20-2-13-2-16-2-29-4h-12l-2 2-1-4-13-3-44-6-27-3-10-2-39-5-35-5-11-2h-14l-8 1-20-5-42-6-39-6-35-4-17-1-19-4-34-3v-1h17l9-1 4-1v-2l7-2 5-2v-13l-8-6-2-2-1-10 1-8-4-1v-3h5v2l11 1 50 6h4v-2l-55-7h-8l-1-4 1-1 13 1 46 5 7 2v2l3-2 16 1 38 4 18 2v8l-1 5 13-4 2-1 1-10-21-2-59-8-7-1-1-4 4-2h17z" fill="#333"/>
<path transform="translate(432,283)" d="m0 0h10l86 8 85 8 3 1 28 2 11 1 2 1 17 1v2h11l80 8 75 7 20 1 2 1 51 5 29 2 146 14 34 3 16 1 1 1-2 51-2 5-5-2-2 2-16-1-289-32-178-20-60-7-33-4v-2h-9l-3-2h-6l-2-2-1-10-5-4-5-5-3-7-4-4-2-6-12-3-8-4-18-3-17-2-25-3z" fill="#505150"/>
<path transform="translate(735,184)" d="m0 0h7l-1 2-7 2h10l10 2-3 2-35 9-5 2-2 3 8 4 9-1 18-3 18-1 14 3 12 3 6 3 4 3v3l13 2-1 2-7 2-1 1-1 14-4-2-5-4-6-2h-10l-1 1h-5l3 3 2 1v2l5 2 6 7 4 8v18l-4 8-7 7 12-2 8-6h3v12h2l-1-9v-44l1-14h15l15 1 4 1 38 2 4 1 53 3v59l-1 20h-5v-2h-23l-47-4h-9l10 3 2 3v3h2v2l-7 1-8-1-35-2-39-4-26-2-26-3-67-7-19-3 2-2 9-3 6-5h2v-2l5-1 9-1-58-6-47-4 2-2 11-2 8-6 4-7 2-9 15-11 12-8 11-7 11-6 4 1v15l2 1v2l68 4v-8l-5-2-13-8-9-6-9-5-7-5-7-4 4-1 6 4 13 8 12 7 11 7 3 1v2l7 2 9 6 14 8 5-1 7-7 7-2-2-2-24-11-14-7-15-7-22-8-5-1 10 5 5 6-9-3-16-8v-2l14-3 44-9z" fill="#727372"/>
<path transform="translate(648,374)" d="m0 0h7l3 2 16 1 13-2 8-1 24 2 6 1 1-2 5 2 15 1 2 1 6-1 16 3 5 1 22 2 21 4 10 1-1 2-10 4-2 9v2l5-1 8-3 3-12 7-1 9 1 22 2 9 3-5 5v1l9 1 2 1 63 8 6 2 2 2-2 1h-11l-49-6-22-4 3 3 8 2 1-2 17 3 47 6 12 1 1-2 3 3 18 3 14 1 26 4 30 3 5-1v6l7-2 5-3h2v6l-4 5-9 3-5 1-2-1 1 7-5 5h-3l-1 2-5 2-4 5-10 3-14 4h-7l-2 4-5 6h-3l-2-16v-3h-4v2l-6 1v2h-4v3l-3 2h-10l-7 2-16 2-3-1v-2h-2v-2l-9-2-17-2-11-3-6-2-6 1-8-3-5 2h-9l-2-1v-2h-3v-2l-16 1-5-1v2l-2 1h-9l-44-6-27-3-10-2-39-5-13-2-2-2 3-1h9v-2l-6-1-13-4-4-4 2-2-3-3-7-2-2-3-10-2-9-2-3-2-1-25z" fill="#505150"/>
<path transform="translate(1008,218)" d="m0 0h26l5 1 57 3 113 7 20 1 1 1-2 37-2 30v10l-17-1-41-4-59-5-9-1-1 7h9l1 4h-10v2h-2v3h-14l-1-1-21-1v2h-16l-1-4-18-1-3-1v-2h11v-14l-28-1v-30l1-37z" fill="#727372"/>
<path transform="translate(843,466)" d="m0 0h12l29 4 16 2 29 4 4 1v110l-4 6-11 13-6 7h-1v-6l2-10-8 6-5 6-3 5-7 9-22 28-9 11-8 10-11 14-11 15-3 4h-2l1-6 2-4 4-17 7-23 7-26 6-18 1-4h-7l-8-2-21-3v-4l8-16 9-17 3-6-18-1-10-2 1-7 8-19 7-19 4-10 6-16 4-8 2-6z" fill="#E7E9E4"/>
<path transform="translate(805,227)" d="m0 0h14l15 1 4 1 38 2 4 1 53 3v59l-1 20h-5v-2h-23l-33-3v-2h-11l-55-5-1-2v-38z" fill="#727372"/>
<path transform="translate(846,470)" d="m0 0h10l28 4 1 2-4 6-11 29-4 10-2 7-2 4 5 1 11 2 15 2-1 5-13 25-7 12 8 2 13 2 17 3 1 3h-2l-2 5-3 1-2 5-8 11h-2l-2 4-15 20-1 2h-2v3l-5 5-3 5h-2l-2 4-12 16-2 1v-2l-2-1v6l-8 11-3 3 2-9 5-16 3-12 5-17 8-26 2-4-11-1-25-4 1-5 16-31 4-5h2v-2h-9l-22-4 1-7 9-21 6-16 5-13 5-11 5-13z" fill="#D8A557"/>
<path transform="translate(639,216)" d="m0 0 4 1v15l2 2h-4l3 3v2l17 2 3 3 2 4 2 1v5l3 6v3l-12 2-26-1v2l5 2 16 9 2 4 16 1 62 6 15 1 5 1-5-5-6-10-2-7v-7l2-1 2 12 6 11 6 5 5 2h11l7-2-1 2 12-2 8-6h3v12h2l-1-9v-44l1-14h1v74l66 6v1h-23l10 3 2 3v3h2v2l-7 1-8-1-35-2-39-4-26-2-26-3-67-7-19-3 2-2 9-3 6-5h2v-2l5-1 9-1-58-6-47-4 2-2 11-2 8-6 4-7 2-9 15-11 12-8 11-7z" fill="#4F504F"/>
<path transform="translate(421,412)" d="m0 0 4 2 16 2h12l-1 3v11l1 13v13l3-2 9 1 2 1v2h2l-2-30-1-10h10l23 4v29l1 4 3 65v17l-17-2-13-2-1-23v-16h-10l-6-1 1 35h-12l-17-3-2-32-1-9-3-56z" fill="#FAFAFA"/>
<path transform="translate(418,199)" d="m0 0 17 1 53 4 35 2 1 18 1 52h-10l-80-8-17-2-1-1v-25l-1-25-1-9 2-6z" fill="#333"/>
<path transform="translate(931,593)" d="m0 0h1v38l-1 37-1 59-13-2-43-9-38-8 2-5 9-9 7-8 11-13 9-11 6-7h2l2-4 8-10 10-11 9-11 11-13z" fill="#F8F8F7"/>
<path transform="translate(851,820)" d="m0 0h7l15 4 138 33 12 3 15 3 15 4 28 6 12 4v3l-10 10-2 1-3 8-12-2-37-9-8-2v-2h-9l-4-1v-2l-8-1-12-3-13-2-12-3v-2l-8-1-111-27-13-1-3 2 1-5h2l1-8 4 1 1 3 5-5 5-6z" fill="#727372"/>
<path transform="translate(370,277)" d="m0 0 22 1 40 4v3l17 1 13 2 26 3 9 3 9 4 6 2 2 3v3l3 1 3 4 2 6 4 3v2l4 2 2 2 1 10 4 1 5 1 1 1 9 1v1h-10l-113-13-25-3-3-1v-2l-3-1-1-7 1-4-4-6-6-19-6-4-11-2z" fill="#333"/>
<path transform="translate(911,183)" d="m0 0 41 2 48 4 7 1 55 2 27 2 7 1v2h3v2l7-1h15l-1 3-4 1v2h5l4-1 7 1v1l17 2-3 3-10 4h-24l-10-1-48-1-81-5-92-6-62-1v-2h-7l2-4 16-3 6-1h7l1-1 15-3 16-2z" fill="#0A4C31"/>
<path transform="translate(676,475)" d="m0 0h15l16 3 2 1v3l4 2 9 7 5 8 2 9 1 51 4 8v2l-16-2-19-3 2-3v-3l-7 5-3 1h-13l-10-5-6-8-3-10v-16l4-7 7-5 24-1 3-2h3l-2-9-8-1-2 1-2 6-17-2h-11l2-15 2-6 7-6z" fill="#FAFBFA"/>
<path transform="translate(524,457)" d="m0 0h20l15 6 7 6v2h2l4 7 3 13 1 17-7-1-15-2-13-2-5-2 1 11 4 6 4 1 2-2v-7l15 3h13v9l-2 7-7 8-7 3h-13l-14-3-10-6-6-7-6-13-2-9v-28l4-11z" fill="#FAFAFA"/>
<path transform="translate(1211,230)" d="m0 0h18l1 1-2 37-2 30v10l-17-1-41-4-14-1v-1h18l-8-1-6-3h-5l-9-4-3-2v-5l9-4 5-4 10-3 15-7 7-4 3-1 2-5 2-3 2-12 4-6 5-3 6-2z" fill="#505150"/>
<path transform="translate(1044,234)" d="m0 0h15l4 1v2h2v2l22 1 1 3-1 3-2 41-1 21 2 2h10v2l-5 1h-8l-1-1-21-1v2h-16l-1-4-18-1-3-1v-2l11-1 2-22 2-43 1-3z" fill="#95928C"/>
<path transform="translate(740,486)" d="m0 0 38 4v3h-2l-3 11h2l2-4 2-5 6-4h15v36l-6-2-5-2h-7l-5 4-1 2-1 47-8-1-14-2-3-1h-7l-2 1 1-5v-33l-1-42z" fill="#FAFAFA"/>
<path transform="translate(535,554)" d="m0 0 10 1 22 3 16 4 3 2 2 36v28l-1 1h-11l-14-3-12-2-10-3-3-3-1-3-2-36-1-21z" fill="#747674"/>
<path transform="translate(639,216)" d="m0 0 4 1v15l2 2h-4l3 3v2l17 2 3 3 2 4 2 1v5l3 6v3l-12 2-26-1v2l5 2 16 9 2 4 16 1 9 1v1h-13l-58-6-47-4 2-2 11-2 8-6 4-7 2-9 15-11 12-8 11-7z" fill="#505150"/>
<path transform="translate(578,434)" d="m0 0 18 2 14 2 1 26 1 44 1 22v18h-8l-22-3-1 2-1-3h2l-1-40-3-65z" fill="#FAFAFA"/>
<path transform="translate(481,544)" d="m0 0 10 1 14 3 20 3 5 3 1 13 1 50-2 2-9-2-1-1h-7l-26-5-3-3-3-25-1-20v-18z" fill="#D3A45C"/>
<path transform="translate(591,564)" d="m0 0 13 1 27 5 10 3 3 3 1 35-2 1-4-9 1-4h-2l-1-5 2-3-2-9-2-5-5-1v-3h-4l3 12 6 12 5 12 2 5h2l1 4v19l-2 4-12-1-22-5-14-4-1-1 1-10 1-4h9l12 3 26 5-2-3-41-8-7-1-2-13z" fill="#718A7D"/>
<path transform="translate(644,199)" d="m0 0 3 1-22 12-16 8-17 9h-3v2l-10 5-6 4h-2v17l-3 7-6 7-5 3h-10l-6-3-8-9-4-10v-17l6-8 7-6 2-1v-15h-12v-1h26l47 3 13 1 1 2-7 1v2l-34 13-2 4-5 5v2l4-2 1-2 16-8 13-7 7-3 16-8z" fill="#4E4F4E"/>
<path transform="translate(616,439)" d="m0 0 33 4v27l-3-1v-2l-11-3h-7l-7 1-1-2 1-10 2-2h16l3 1v-2h2l-1-2-23-3v23l10 1 2 1 17 2 1 54 1 15v14l-12-1-17-3-2-4-2-70-2-11z" fill="#FAFAFA"/>
<path transform="translate(379,186)" d="m0 0h29l9 3v2l3 1-1 5h-7l2 29 1 3v25 3l-4 1h-35l-6-1v-2l31-1v-3h-18v2h-7l-5-1v-3h-7v-2h6v-57h3v-2z" fill="#FCFCFC"/>
<path transform="translate(910,475)" d="m0 0h12l11 2v110l-4 6-4 5-2-1 2-3 3-13v-7l-7-1-17-3 1-6 10-21 2-5-1-6-9-5-13-3 1-8 7-18z" fill="#F9F9F8"/>
<path transform="translate(521,292)" d="m0 0 40 2 52 5 3 1 28 2 11 1 2 1 17 1v2h11l80 8 75 7 20 1 2 1 51 5 29 2 167 16v2h11v1h-23l-13-2-35-2-19-2-23-2-56-5-18-2-22-1-12-1-17-2h-12l-6-1-18-1h-14l-2-1-20-2-22-1-4-1-23-1-14-3-19-1-7-2-11-1h-3l-13-2-5-1-22-3-20-2-35-4-5-1-24-2-24-3-14-2-21-2z" fill="#737372"/>
<path transform="translate(514,164)" d="m0 0h30l26 2 39 1 5 1 34 2 6 1 104 3v3l-20 3-21 3-15 4-10 1-2 1h-18l-26-1-15-2 3-1v-2h-10l-3-2-9 1-9-1v2l-5-1-15-2v-1l9-2h2l4-1-4-2-18-2-5-2h-23l-7-1h-15l-2-1h-14l-11-1v-1z" fill="#094F33"/>
<path transform="translate(994,189)" d="m0 0 13 1 55 2 27 2 7 1v2h3v2l7-1h15l-1 3-4 1v2h5l4-1 7 1v1l17 2-3 3-10 4h-24l-10-1-48-1-52-3 3-3-1-6-2 1-2-2-1 3-3-3h-7l-7 2-1-3 4-1 2 1-1-4 1-2-3-1 10-1z" fill="#143E2B"/>
<path transform="translate(735,793)" d="m0 0 12 2 47 11 1 1 20 4 8 3-2 5-4 8v7l6 9 2 1v2l-4-2-7-9-27-6-33-8v-2l-13-1-12-3v-2l-17-1 2-6 2-5 4 1 1 2 4-2z" fill="#6E6F6E"/>
<path transform="translate(467,204)" d="m0 0h21l35 2 1 18 1 52h-10v-2h-7l-8-1 2-5v-9l-4-9-4-6-2-2-3-11-2-11-3-9-2-2v-3l-3 1-2-1-10-1z" fill="#505150"/>
<path transform="translate(846,470)" d="m0 0h10l28 4 1 2-4 6-11 29-6 15-9-4-6-2h-6l-3-3-1 1-8 4-5 10-8 20h-4l1-7 9-21 6-16 5-13 5-11 5-13z" fill="#323332"/>
<path transform="translate(857,467)" d="m0 0 12 1 19 3 19 2 6 1-3 1-2 9-11 30-3 10 5 1-1 4-2 5-23-3-5-1-2-7-1-2 10-25 6-16 3-5-24-3-14-2v-1z" fill="#E7E8E2"/>
<path transform="translate(689,582)" d="m0 0h8l15 2 2 1-1 4-3 4-4 14-4 1 1-6 3-12-5 1-3 12v7l4 2h5l5-1v3l6-2 3-3 5 1 3-5 1 2-3 10 20 4v-6h4v7h6l-2-9 3-5 2-8-3-1-1-3 1-1h11l-2 10-2 5-3 13v5l1 1v6l-5 8-2 1 1 3v9l-5-1-1-10-4-1v7l-2 2h-6l2-12-4-2h-5l-2 4-1 7h-6l-1-4 1-1 2-15 3-11h-13l-16-4-13-1-10-3-4-3 1-7 2-1v6h2v2h2l-1-2v-7h3l2 7 5 3h6v-2h2l-1-7-1-3h-2v-2h-2l-1-4 5 1 4 2-1-6-3-2h-7l1-3z" fill="#EDEFED"/>
<path transform="translate(931,589)" d="m0 0 2 3v19h-1l-1-17-8 12-9 10-8 10-9 10-9 11-6 8-5 5-10 11-9 11-9 10-7 8-6 7h-8l-2-1 2-5 12-16 11-14 12-15 11-14 13-16 10-13 4-6 4-5 6-5h2v8l-1 7 8-9 9-11z" fill="#747574"/>
<path transform="translate(911,642)" d="m0 0 7 1 3 9 1 15v13l-2 3h-2l-1 3v1l4 10-2 4-6 4-4-1-6-7v-10l-10 4-4 1-3-3v-2l-7-2-3-4 1-6 5-7 4-4h2l1-3 13-13z" fill="#E9EBE5"/>
<path transform="translate(498,165)" d="m0 0h6v1l8 1h12l2 1h20l2 1h24l4 2 18 2 5 3-3 3-7-1-1 1 10 2 4 1 2-2 12 1 5-1 3 2 10 1v2l3 2-7 1-2-3-6-1-2 1-35-1-57-2-43-4-13-2-3-1h-13l-14-1 2-2 29-4z" fill="#113D2A"/>
<path transform="translate(735,184)" d="m0 0h7l-1 2-7 2h10l10 2-3 2-35 9-5 2-2 3 8 4 9-1 18-3 18-1 14 3 12 3 6 3 4 3v3l13 2-2 2-13-2-42-3h-25l-17-8-9-4-19-7-5-1 10 5 5 6-9-3-16-8v-2l14-3 44-9z" fill="#4F504F"/>
<path transform="translate(527,744)" d="m0 0h7l49 11 2 3v3l3 1 7 9-1 5-3 3h-2v2h-3l-3-5-4-4-2-3-2 4 4 7 4 3v2l-4-2-5-5-5-3-8-2v-2l-13-1-60-15v-4l9 1 4 2h11l14-4z" fill="#343434"/>
<path transform="translate(456,493)" d="m0 0 16 1 2 30v7l-1 2h10l3 2-11-1-1 5-4 1 6 6v7l-5-5-2-4-2-1 3 7v10l-1-2-4 1-2 5-5 4h-5v-2l5-5 4-7 1-7-2-3-2 10-6 8-2 2-5-1-1-1-7-1v-2l10-5 5-5 3-7-7 7-11 7-9 2v-7l9-3 2-1h-11v-12l13 1 10 1 5 1 4-3-3-2v-3l-7-1v-1l5-1z" fill="#125D3F"/>
<path transform="translate(714,586)" d="m0 0 24 3 19 4 11 1v1l-11 1 1 3 2 1v6l-3 6-1 4 1 6h-6v-7h-4v6h-7l-13-4 2-11-2 5-6-1-4 4h-5v-3l-5 2-7-1-3-2v-7l3-12 2-2 5 1-3 12-2 6 3-1 5-16z" fill="#E2E4DF"/>
<path transform="translate(843,466)" d="m0 0h12l2 2-4 1h-7l-3 9-6 16-5 11-6 15-6 16-5 11-1 5 17 2 14 2v2l-5 5-18 36h7l29 5-3 11-7 22-5 18-7 24-2 8 6-9 10-9 5-4-2 5-10 12-12 16-5 7h-2l1-6 2-4 4-17 7-23 7-26 6-18 1-4h-7l-8-2-21-3v-4l8-16 9-17 3-6-18-1-10-2 1-7 8-19 7-19 4-10 6-16 4-8 2-6z" fill="#EEEFED"/>
<path transform="translate(1046,240)" d="m0 0h23l12 1-2 2-10 4-1 2v12l-2 9-1 7-1 1-2 23v7l-1 1-17-1-4-2 2-5 2-25 1-29z" fill="#EAECE6"/>
<path transform="translate(758,241)" d="m0 0h5l3 1 7 1 7 5 4 5 2 12-1 10-3 5h-2l-2 4-6 3h-9l-9-5-5-7-3-8v-11l4-8 4-4h2v-2z" fill="#1C1B1B"/>
<path transform="translate(876,397)" d="m0 0 44 4 46 5 82 9 21 3 1 1v9l-2 4-7 4h-5l2-12-45-5-54-7-50-6-27-5-6-2z" fill="#111010"/>
<path transform="translate(649,473)" d="m0 0 3 1 1 13 3 1 1 4 2 1-1 1v11l2-1h9l15 2 2 1 1-6 3-2h5l5 5v6l-6 3-24 1-7 5-3 6v16l2 11-4-1-3 4h-3v2l-9 1-10-1-3-2-8-1v-3l14 1 15 3-2-29z" fill="#194F39"/>
<path transform="translate(585,578)" d="m0 0 2 1 1 21v28l-1 1h-11l-14-3-12-2-4-2-6-4-2-6-1-11 9 1 17 3h9l1-2 3 2 8 1v-25z" fill="#8E9790"/>
<path transform="translate(915,534)" d="m0 0 3 1-1 7-12 24-1 4 9 1 7 2-1 2h-3l-1 4 5 1-1 4h-7l-12-3-20-3-2-1 2-5 6-12 10-19 1-2 15-3z" fill="#757675"/>
<path transform="translate(644,199)" d="m0 0 3 1-22 12-16 8-17 9h-3v2l-10 5-6 4h-2v17l-3 7-6 7-5 3h-10l-6-3-8-9-4-10v-17l6-8 7-6h5l-5 5h-2v2h-2l-1 3h-3l-2 7 1 12 3 6v2h2l4 6 4 3h12l5-5 3-8-1 1-6 8-5 2-1-1-2-28v-8l12 6 4 1 4 2 4-2 1-2 16-8 13-7 7-3 16-8z" fill="#4E4F4E"/>
<path transform="translate(1130,354)" d="m0 0 8 1v26l-1 20-2 5-5-2-2 2-16-1-73-8v-1h10l18 2h10l11 2h14l9-1 4-4 3-13 3-14 3-7 4-6z" fill="#333"/>
<path transform="translate(1020,191)" d="m0 0h17l42 2 10 1 7 1v2h3v2l7-1h15l-1 3-4 1v2h5l4-1 7 1v1l17 2-3 3-10 4h-24l-10-1-22-1v-2l14-4 2-3h-10l-4-1v2h-2v-2l-10 2-1-2-1 2h-7l-1-2 1-2h3v-3l-15-2h-10l-19-2z" fill="#054F31"/>
<path transform="translate(545,217)" d="m0 0 1 2 4-1 19-1 6 2-1 2-9 3-8 1h-2l10 8-1 3-8-5-4-2 1 25 1 10 5-2 5-7 2-8h1v7l-3 8-6 6h-12l-7-6-1-4h-2l-4-8-1-12 3-7 3-1 1-2h2v-2l4-1v-4z" fill="#393A39"/>
<path transform="translate(379,186)" d="m0 0h29l9 3-2 1v2l-37 1v57h4l29-1 3 1v-21h1v25 3l-4 1h-35l-6-1v-2l31-1v-3h-18v2h-7l-5-1v-3h-7v-2h6v-57h3v-2z" fill="#908E88"/>
<path transform="translate(1081,241)" d="m0 0h5l-5 5-3 44-1 11v8l-2 1h-15l1-2v-9l2-21 1-1 2-13 1-7v-8l4-4z" fill="#B7BCB9"/>
<path transform="translate(674,779)" d="m0 0 11 1 20 5 2 1-1 4-6 11 1 5 6 9-2 1-4-5-7-5-31-7-7-2 1-4 3-3 6-4z" fill="#4F504F"/>
<path transform="translate(730,218)" d="m0 0h24l42 3 13 2-4 2-3 2-1 14-4-2-5-4-6-2h-10l-1 1h-5v2l-4 1 4 5-6 1-3-2 1-6-32-16z" fill="#727372"/>
<path transform="translate(413,406)" d="m0 0 10 1 10 3 34 3 16 3v1h-13l-4 1 2 10 2 31-3-1v-2l-11-1-3 1-2-26v-11l2-3-4 1h-8l-16-2-4-3-1 3 1-5-8-3z" fill="#095738"/>
<path transform="translate(663,200)" d="m0 0 5 1 5 3 13 8 12 7 11 7 3 1v2l7 2 9 6 14 8 5-1 7-7 9-2-1 4-1 2-5 1v2l-5 4-4 8v11l3 8 4 5v2l5 2 6 2h7l6-3 2-3h2l2-5 1-12-2-10-5-6-9-6-5-5h7l4 2v2l5 2 6 7 4 8v18l-4 8-5 5-8 3h-11l-8-4-6-7-4-8-1-4v-17l-21-14-8-5-10-5-10-7-14-8-10-7-7-4z" fill="#82817D"/>
<path transform="translate(1089,194)" d="m0 0h15l3 2h16v2h7l5-2 17 1 1 1 10-1 17 1 15 2v2l-11 3-36 12-7 1-4-2 1-2h3l-1-3 8-3-17-2-4-1-5-2-1 2-5-1v-2l4-2 1-2-11 1h-11l-4-2-4-1z" fill="#0A462D"/>
<path transform="translate(596,616)" d="m0 0h9l12 3 26 5-1-3h3v16l-2 4-12-1-22-5-14-4-1-1 1-10z" fill="#515452"/>
<path transform="translate(957,414)" d="m0 0h27l36 5 36 4 2 1-1 9-1-3-7 2-43-5-13-2-26-3-5-2v-2l-5 1z" fill="#454645"/>
<path transform="translate(514,164)" d="m0 0h30l26 2 39 1 5 1 34 2 6 1 29 1 7 1-1 2h-14l-6 1-39 1-7-1-3 1-3-2-7-2-4 1-29-3-1-1h-28l-7-1h-15l-2-1h-14l-11-1v-1z" fill="#838781"/>
<path transform="translate(909,474)" d="m0 0 4 1h-3l-2 9-11 30-3 10 5 1-1 4-2 5-23-3-5-1 3-12 3-6 6-7 5-2 8-1 7-9 4-10 3-7z" fill="#767775"/>
<path transform="translate(838,515)" d="m0 0h2l1 4h8l10 4 4 1 2-1-1 5-2 4 5 1 11 2 15 2v3l-2 1h-9l-12-2h-8l-6 2v1l-10-1-21-6 1-5 4-8 6-4h3z" fill="#96928C"/>
<path transform="translate(674,284)" d="m0 0h17l11 1 7 2 11 1-1 2h-15l-11 1-10 5v2l-10 2-1 2h-10l-27-4 2-2 9-3 6-5h2v-2l5-1z" fill="#333"/>
<path transform="translate(931,589)" d="m0 0 2 3v19h-1l-1-17-8 12-9 10-8 10-9 10-9 11-3 4h-3l2-5 1-2h2l2-5v-1h-2l-2 4-3 2h-3l-1 3h-2l2-5 2-3h2l2-4 5-9 1-2h2l2-6 3-5 4-6 4-5 6-5h2v8l-1 7 8-9 9-11z" fill="#737473"/>
<path transform="translate(805,302)" d="m0 0h12l54 5v1h-23l10 3 2 3v3h2v2l-7 1-8-1-35-2-8-1v-1l8-1-1-3-8-1 1-7z" fill="#343434"/>
<path transform="translate(639,364)" d="m0 0h2v2h2l1 7 1 33v30l-4-1-2-23-4-11-3-6-1-8-4-1v-2h-5l-1-1v-5l3-2 1-5 4-1 2 1 7-3z" fill="#505150"/>
<path transform="translate(725,495)" d="m0 0 2 1 5 4 5 3 1 3-1 9 2 11 1 16v15l-1 7 2 3-1 5h-11l-4-2h10l-6-11-1-51-2-9z" fill="#074B2F"/>
<path transform="translate(866,522)" d="m0 0 2 3v5l11 1 17 2 3-8 8 1 10 6v2l-7 4-13 1-2 5-8 16-9 17 28 4 6 2 1 4-17-2-7-2-18-3 6-12 8-14 8-17h-8l-15-2-8-3 3-9z" fill="#F0F1EF"/>
<path transform="translate(815,602)" d="m0 0h8l18 3 11 2-1 7-5 15-7 26-8 27-4 15-4 7h-3l1-8 4-15 4-10 6-25 3-9 1-11 2-10v-4l-6-1v-2l-10-1-9-4z" fill="#114C34"/>
<path transform="translate(734,175)" d="m0 0h24v2l-20 3-21 3-15 4-10 1-2 1h-18l-26-1-9-1 4-2 22-2 17-3 2-2 31-1 17-1z" fill="#969590"/>
<path transform="translate(468,354)" d="m0 0 13 1 46 5 7 2v2l3-2 16 1 38 4 18 2v8h-1v-5h-2v3l-13-1-55-7-6 1-1-2-55-7h-8l-1-4z" fill="#333"/>
<path transform="translate(630,769)" d="m0 0h8l8 3 10 12 3 2v4l-5 4-1 2h-2l2-8h-2l-4-7v-3h-2v-2h-3l-2 6-1 2v6l2 5h2l4 4v2l-4-1-2-4h-2l-3-4-7-3-11-2-5-2-19-3 1-5 6-1 5 1h13l9-1z" fill="#555655"/>
<path transform="translate(933,331)" d="m0 0h9l167 16v2h11v1h-23l-13-2-35-2-19-2-23-2-56-5-18-2z" fill="#676867"/>
<path transform="translate(611,441)" d="m0 0 3 1 4 29v78l-3 5h-9l-4-1v-2l-11-1-7-2-1-3h9l21 3-1-48v-21l1-2 1-16h-2l-1-13z" fill="#0A4E33"/>
<path transform="translate(616,439)" d="m0 0 33 4v27l-3-1v-2l-11-3h-7l-7 1-1-2 1-10 2-2h16l3 1v-2h2l-1-2-23-3-1 23-2 3-1-5z" fill="#95928C"/>
<path transform="translate(689,582)" d="m0 0h8l15 2 2 1-1 4-3 4-4 14-4 1 1-6 3-12-5 1-3 12v7l4 2h5l5-1v3l6-2 3-3 5 1 3-5 1 2-3 11h-16l-13-3-13-1-10-3-4-3 1-7 2-1v6h2v2h2l-1-2v-7h3l2 7 5 3h6v-2h2l-1-7-1-3h-2v-2h-2l-1-4 5 1 4 2-1-6-3-2h-7l1-3z" fill="#E9EBE6"/>
<path transform="translate(495,550)" d="m0 0h4v2l-6 5-2 4v13l3 9h2l6 8 7 4 18 3 2 1v10l-2 6h-3v-7h-10l-2-4 7 1-1-3-13-3v5h-2v2l6-4-1 5-1 2h-6l-3-4-6 2 1-6h-3l1 7-4-2-3-16 5 1 2 1h6l-8-14-1-4v-16l5-7z" fill="#95928A"/>
<path transform="translate(911,183)" d="m0 0 41 2-3 1v2l-8 3-2 1-19 1-4-3h-9v2l-8-1-3-1-2-1v-2l-8 1-1 2v-2l-9 2-18 2-4 2h-5l-1-3-4-2 15-3 16-2z" fill="#113C29"/>
<path transform="translate(1039,236)" d="m0 0h5v3h8v1h-6l-1 36-2 25-2 5 3 2h-18l-3-1v-2l11-1 2-22 2-43z" fill="#B8BCB9"/>
<path transform="translate(585,562)" d="m0 0 6 1 1 36 1 13h7l41 8 2 4-10-1-24-5-13-2-1 15-5 2-5-1-3-1-11-1-7-2v-1l12 1h11v-28z" fill="#16553C"/>
<path transform="translate(843,466)" d="m0 0h12l2 2-4 1h-7l-3 9-6 16-5 11-6 15-6 16-5 11-1 5 17 2 14 2v2h-7l-2 3v-2l-18-1-10-2 1-7 8-19 7-19 4-10 6-16 4-8 2-6z" fill="#ECEDEC"/>
<path transform="translate(754,205)" d="m0 0h9l13 3 12 3 6 3 4 3v3l13 2-2 2-13-2-42-3-11-2v-1l17-1-7-3-10-2h-7l-3 1-7-1v-1l18-3z" fill="#353535"/>
<path transform="translate(677,579)" d="m0 0 16 2-4 2h-2l1 2h5l4 3 1 6h-4l-6-3 1 4h2v2h2l2 3v7h-2v2l-6 1-6-4-2-7h-1v9h-2v-2h-2l-1-5h-1l1-10 3-11z" fill="#AAB0AC"/>
<path transform="translate(451,540)" d="m0 0h9l5 3 5 7v10l-1-2-4 1-2 5-5 4h-5v-2l5-5 4-7 1-7-2-3-2 10-6 8-2 2-5-1-1-1-7-1v-2l10-5 5-5 3-7-7 7-11 7-9 2v-7l9-3 7-3z" fill="#F8F8F7"/>
<path transform="translate(378,192)" d="m0 0h19v1l-12 1 2 56h-5l-1 2-3-2-1-13v-44z" fill="#EAECE6"/>
<path transform="translate(521,292)" d="m0 0 40 2 52 5 3 1 28 2 11 1 2 1 17 1v1l-9 1 2 2-3 1-23-3-29-3-5-1-24-2-24-3-14-2-21-2z" fill="#6A6B6A"/>
<path transform="translate(1064,874)" d="m0 0 12 1 8 1-3-2 7 1 6 3-6 7-7 6-2 7h-1v-5l-9-2-12-5-3-5 2-4 5-2z" fill="#505150"/>
<path transform="translate(827,192)" d="m0 0h8l18 3h7l5 1h14l3 1 22 2 22 1 2 2h-36l-11-1-62-1v-2h-7l2-4z" fill="#035736"/>
<path transform="translate(535,554)" d="m0 0 10 1 22 3 6 2v1l-17-1-19-4 1 40 6 2 9 2v-6l11 1 6 2 2 4v4l-2 1-13-1-14-3h-5l2 13 1 3 8 3v1h-7l-4-2-2-5-2-36-1-21z" fill="#7D8E82"/>
<path transform="translate(501,465)" d="m0 0 2 2 2 3 1 32 4 5 4 11 6 10 8 6 9 4v2l-10-3v-2l-7-1-7-7v-2h-2v2h-2l1 4-4 6h-2l-2-17-1-18z" fill="#114A33"/>
<path transform="translate(501,756)" d="m0 0 9 1 45 11 12 2 2 1 4-4 8-11h3l1 5 3 1 7 9-1 5-3 3h-2v2h-3l-3-5-4-4-2-3-2 4 4 7 4 3v2l-4-2-5-5-5-3-8-2v-2l-13-1-31-8v-2l-8-1-8-2z" fill="#5F605F"/>
<path transform="translate(521,206)" d="m0 0h2l1 18 1 52h-5l-2-2-3-67z" fill="#707170"/>
<path transform="translate(727,617)" d="m0 0 13 3 1 2 5 2-1 5-2 7-2 4-10-1-2 4-1 7h-6l-1-4 1-1 2-15 3-11h-13v-1z" fill="#DEE0DB"/>
<path transform="translate(591,564)" d="m0 0 13 1 27 5 10 3 3 3 1 35-2 1-4-9 1-4h-2l-1-5 2-3-2-9-2-5-5-1v-3h-4l-1 4-2-1v-2l-5-1-6-2-9-2-1 2-9 3-2-6z" fill="#939383"/>
<path transform="translate(1122,203)" d="m0 0 10 1v1l17 2-3 3-10 4h-24l-10-1-22-1v-2l14-4h19l1-2h7z" fill="#93938E"/>
<path transform="translate(467,731)" d="m0 0h7l8 8v2l3 1 2 3-1 4-7 6-1-2 4-5-1-5-3 2-1-1v6h-2v-2l-6-1 4 7 1 3-4-2-6-5v-2l-8-1-31-8-2-1v-2l10 1 25 6 4-1z" fill="#444"/>
<path transform="translate(905,479)" d="m0 0 1 3-4 8-4 7-5 6-11 2-5 4-3 3 3-10 5-13 2-4 9-2 2-2h10z" fill="#B6BBB8"/>
<path transform="translate(662,306)" d="m0 0h12l91 9 75 7 7 1v1h-21l-18-2-25-2-44-4-48-5-17-2-12-2z" fill="#8D8B86"/>
<path transform="translate(768,245)" d="m0 0 5 2 6 5 1 4h2l1 11-1 6h-2l-1 4-4 4h-2l-1 3h-4z" fill="#707170"/>
<path transform="translate(663,200)" d="m0 0 5 1 5 3 13 8 12 7 11 7 3 1v2l7 2 9 6 14 8 5-1 7-7 9-2-1 4-1 2-5 1v2l-5 4-4 8v19h-2l-2-7v-17l-21-14-8-5-10-5-10-7-14-8-10-7-7-4z" fill="#8F8D89"/>
<path transform="translate(470,553)" d="m0 0h1v11l-3 8-7 9 8 2 2 3-4 1-8-4-4 3-1-2-7-3h-10l3-3h2v-2h4l1-5h2v-2l4-2h5l5-4 2-4 4-1z" fill="#718B7D"/>
<path transform="translate(758,245)" d="m0 0h5v38l-5-2-4-5-2-1-3-8v-12l5-6z" fill="#707170"/>
<path transform="translate(536,501)" d="m0 0 15 2 12 2 13 3 1-4-1 14h-1v-5l-3 1h-10l-14-3v6l-3 3-4-1-4-5-1-2z" fill="#3E3F3E"/>
<path transform="translate(572,169)" d="m0 0 16 2 19 2 5-1 10 4v-1l11 1h27v1l-8 1v3h-16l-5 1-13-1-6 1-9-1v2l-5-1-15-2v-1l9-2h2l4-1-4-2-18-2z" fill="#17573E"/>
<path transform="translate(537,601)" d="m0 0 9 1 23 4 16 3 1 1v16l-14-1-5-1-2-4h10l5 1v2h2l-1-11-6 1-30-7h-5l2 7 19 6v1h-13l-7-3-3-5z" fill="#404040"/>
<path transform="translate(852,821)" d="m0 0h8l109 26 54 13 6 2-4 1-42-10-14-3-56-13-15-3-15-4-14-3-17-5z" fill="#918E89"/>
<path transform="translate(475,534)" d="m0 0 16 1 8 1 5 2 2 6 4 1v2l12 2v1l-17-1-19-4h-7v6l-2-1-3-5-4-3v-2l-3-1 5-1 2 1z" fill="#0E4830"/>
<path transform="translate(893,618)" d="m0 0h2l-3 6h-2l-2 6-6 9h-2l-2 4-5 8h-2l-2 4-10 14-9 11-8 11-14 14-1-2 9-13 11-14 13-16 7-9 11-14 13-16z" fill="#575856"/>
<path transform="translate(542,221)" d="m0 0h5l-5 5h-2v2h-2l-1 3h-3l-2 7 1 12 3 6v2h2l4 6 4 3h12l8-8 2-7 2 2-1 9-7 8-5 3h-10l-6-3-8-9-4-10v-17l6-8z" fill="#4C4D4C"/>
<path transform="translate(1172,198)" d="m0 0h8l15 2v2l-11 3-36 12-7 1-4-2 1-2h3l-1-3 9-4 7-1 15-5z" fill="#123727"/>
<path transform="translate(902,488)" d="m0 0 1 4-4 12-4 9h-2v2l-14 6-4-1v2l-5 2 1-6 3-6 6-7 5-2 8-1 7-9z" fill="#96948E"/>
<path transform="translate(900,569)" d="m0 0 19 3v3h-3l-1 4 5 1-1 4h-7l-12-3-20-3-2-1 2-5h3l3 2v-2l6-1z" fill="#575756"/>
<path transform="translate(690,499)" d="m0 0h5l5 5v6l-6 3-24 1-7 5-3 3 2-6 3-6 3-1-2-3-6-1v-1h9l15 2 2 1 1-6z" fill="#215C44"/>
<path transform="translate(500,424)" d="m0 0 2 3 1 16v12l3 5 5 3 1 2-3 9v32l-4-4-1-31-2-4-1 6h-1l-1-18-1-4v-26z" fill="#165038"/>
<path transform="translate(961,417)" d="m0 0 13 1 46 6 34 3-2 4-3 1-43-5-13-2-26-3-5-2z" fill="#111010"/>
<path transform="translate(787,631)" d="m0 0h8l8 3-1 4h-9l-2 6 5 1 1 4-5 1-2-2-2 10h9v5l-1 1-9-1-7-3 4-20z" fill="#E2E4DF"/>
<path transform="translate(545,227)" d="m0 0h2l1 21 1 3v13l-1 2-4-2 1-3h-2l-1-2h-3l-2-4-2-14 3-7z" fill="#4E4F4E"/>
<path transform="translate(768,627)" d="m0 0 17 2-1 5-1 1-7-1-3-1-1 7h6v6h-7v8l5 1v4l-15-1 1-9 3-11 2-3z" fill="#E0E3DD"/>
<path transform="translate(857,606)" d="m0 0h4l-1 7-10 32-6 21-3 12-7 10-1-3 7-22 3-12 5-17 8-26z" fill="#2A2A2A"/>
<path transform="translate(837,557)" d="m0 0h6l-2 5-10 19-8 15-1 3h7l12 2v2l8 1 2 2h-10l-25-4v-4l8-16 9-17 2-4h2z" fill="#F0F1EF"/>
<path transform="translate(529,552)" d="m0 0h11l-4 2-2 4 1 21 2 36 1 4-3 2h-9l-10-3 4-1 10 1 1-1-1-50z" fill="#26483A"/>
<path transform="translate(619,444)" d="m0 0 24 3 1 3h-2v2h-19l-2 5v8l7-2h7l9 3 5 4v2l-17-1-2-1-10-1-1-1z" fill="#3E3E3E"/>
<path transform="translate(437,583)" d="m0 0h9l6 3 2 2v4h-3l-5-5 5 7 6 1v-9l9 1 2 5h-7v2l4 2h7v6l-16-2-16-3v-4h2l1-6-6 1z" fill="#757774"/>
<path transform="translate(612,764)" d="m0 0 13 2 9 2-4 1-1 7-1 1-9 1h-17l-5-1 5-5z" fill="#333"/>
<path transform="translate(808,557)" d="m0 0h10l18 2-2 6-10 19-5 10-3 5-3-1 4-9 3-3 2-20-4-3-9-4z" fill="#104A32"/>
<path transform="translate(596,581)" d="m0 0 5 1 2 5 3-3 7 1 6 4 3 6v5h-3l-2-5v-3h-2l2 8-7-1-4-3-1 2-9-1-1-5 3-3v-3l-3-3z" fill="#CDD0CC"/>
<path transform="translate(782,522)" d="m0 0h7l5 2 4 2v2h2v2l-4-1h-10l-4 2-1 11v11l-1 16-3 6h-1v-48z" fill="#074B2F"/>
<path transform="translate(748,596)" d="m0 0 7 1 5 3v6l-3 6-1 4 1 6h-6v-7h-4l-1 5h-5l4-16z" fill="#192520"/>
<path transform="translate(832,830)" d="m0 0 4 1 1 3 5-2 2 6 11 2 13 3 23 7 9 2 5 2v1h-7l-54-13-13-1-3 2 1-5h2z" fill="#8F8D88"/>
<path transform="translate(734,794)" d="m0 0 1 2 7 1 11 4 2 5-9 2-11-1-6-3v-3l-9 8-1 2 2 1h-9l2-6 2-5 4 1 1 2 4-2z" fill="#515251"/>
<path transform="translate(933,233)" d="m0 0 7 1v59l-1 21-4-1v-25l2-48 1-5h-5z" fill="#575857"/>
<path transform="translate(1020,191)" d="m0 0h17l42 2 10 1-2 3-2-1-1 2h-8l-5 4-2 2-1-1v1h-7l-1-2 1-2h3v-3l-15-2h-10l-19-2z" fill="#074C30"/>
<path transform="translate(456,493)" d="m0 0 16 1-1 5-2 6-1 5-2-2v-3l-3 1-3 21-3-1-1-10z" fill="#074B2F"/>
<path transform="translate(539,605)" d="m0 0 10 1 19 4 5 2-1 2h-3v5l-18-2-9-3-2-3z" fill="#8B8985"/>
<path transform="translate(683,172)" d="m0 0 47 1 28 1v1l-24 1-4 1-17 1-31 1-2 2-4-1 4-3 9-3-6-1z" fill="#4D4E4D"/>
<path transform="translate(429,526)" d="m0 0h13l16 4v3l4 2-3 3-3 1-6-3-15-1-7-1z" fill="#0B4B31"/>
<path transform="translate(514,164)" d="m0 0h30l25 3 1 2-2 1h-20l-7-1h-15l-2-1h-14l-11-1v-1z" fill="#D9DCD7"/>
<path transform="translate(1011,306)" d="m0 0 5 2 7 4 13 2 9 1 33 1 12 1v2l-7 1h-21l-25-1-10-2-10-5-6-4z" fill="#424342"/>
<path transform="translate(735,594)" d="m0 0 10 2v5l-8-1v4h5l1 4-5 2h-3l1 3 5 1-1 5h-8l-5-2 2-10 5-12z" fill="#274638"/>
<path transform="translate(702,589)" d="m0 0 5 1-3 12-2 6 3-1 5-16 4-2 1 4-6 18-2 2-7-1-3-2v-7l3-12z" fill="#272C29"/>
<path transform="translate(861,477)" d="m0 0h12l5 2-3 1v3l-10 6h-6l-4 1-3-1v-2l-2-1-1-4 3-3z" fill="#96938D"/>
<path transform="translate(704,787)" d="m0 0h3l-7 14 1 5 6 9-2 1-4-5-7-5-31-7v-2h-5l2-4 2-1v2l15 3 11 3h8l2-3h2l1-5z" fill="#696A68"/>
<path transform="translate(583,756)" d="m0 0 2 2v3l3 1 7 9-1 5-3 3h-2v2h-3l-3-5-4-4-2-3-3 2 2-4z" fill="#383838"/>
<path transform="translate(626,573)" d="m0 0h4v3h5l2 3 3 9-1 4-1 7h2l1 7 3 5h1v7l-1-4h-2l-7-14-4-10-3-5-2-6z" fill="#4D5250"/>
<path transform="translate(773,633)" d="m0 0 10 1 2-1v7l-4 18-2 2v-3h-2l-1 2v-4h-5l-1-1v-8l2-1 6 1v-6h-6z" fill="#1C4735"/>
<path transform="translate(614,210)" d="m0 0 4 1-4 4-5 3-7 3-22 11-4 1-1 3-5 2 1-5 3-3h2l2-5 31-12h3v-2z" fill="#141313"/>
<path transform="translate(1141,836)" d="m0 0 6 2 11 6 3 2v12l-4-1-4-4-13-7v-8z" fill="#707170"/>
<path transform="translate(719,590)" d="m0 0 5 1 5 4v8l-3 5-7 2-2 4h-4l1-8 3-13h2z" fill="#1C2521"/>
<path transform="translate(573,612)" d="m0 0h8l1 11h-2v-2h-14l1 3 12 1v1h-10l-4-1h-12l-7-2v-2l-6-3 1-2 7 3h9l-2-2h7l7 2v-5z" fill="#464646"/>
<path transform="translate(688,585)" d="m0 0h5l4 3 1 6h-4l-6-3 1 4h2v2h2l2 3v7h-2v2l-6 1-6-4-1-2v-8l4 5 3 3 4 1-3-5-5-5v-4l3-4h2z" fill="#2B342F"/>
<path transform="translate(378,192)" d="m0 0h7v1l-5 1 2 35 1 21-2 2-3-2-1-13v-44z" fill="#B7BCB9"/>
<path transform="translate(311,709)" d="m0 0 8 1 37 9 26 6 42 10-1 3-18-4-64-16-30-8z" fill="#333"/>
<path transform="translate(430,580)" d="m0 0h6l1 2v6l6-1-1 6-2 1v2l16 3v4l-17-2-5-3-3-3-1-3z" fill="#161515"/>
<path transform="translate(845,557)" d="m0 0h2l-1 6-12 23-7 12h-5l2-6 15-29 4-5z" fill="#20201F"/>
<path transform="translate(998,218)" d="m0 0h3v31l-1 43h-3v-42z" fill="#646564"/>
<path transform="translate(557,566)" d="m0 0 7 1 4 6-1 6-5 9 6 1v5l-7-1-6-2 1-5 6-10-1-4-3-1v4l-5-2 1-5z" fill="#F2F3F2"/>
<path transform="translate(616,439)" d="m0 0 33 4v4h-12l-17-2-1 23-2 3-1-5z" fill="#9A9B8C"/>
<path transform="translate(740,486)" d="m0 0 38 4v3h-2l-2 7-1-4-22-2-10-1z" fill="#E6E8E2"/>
<path transform="translate(871,406)" d="m0 0 10 1 18 3 43 5 15 1v3h-10l-47-6-17-3-1 1h-6l-5-3z" fill="#111010"/>
<path transform="translate(548,228)" d="m0 0 3 1 1 7 2 28 5-2 5-7 2-8h1v7l-3 8-6 6h-9l-1-4z" fill="#111010"/>
<path transform="translate(727,179)" d="m0 0h5l-4 2-18 4-8 2-10 1-2 1h-18l-26-1-9-1 4-2h29l1 1h13z" fill="#C2C4C1"/>
<path transform="translate(676,475)" d="m0 0h15l16 3 2 1v3l4 2h-3l-2-1-18-3h-10l-13 5h-3l-1 3h-2l1-4 7-6z" fill="#D8DCD6"/>
<path transform="translate(1122,203)" d="m0 0 10 1v1l17 2-3 3-10 4h-24v-1l11-1 1-4-15-1 4-1 1-2h7z" fill="#757974"/>
<path transform="translate(1089,194)" d="m0 0h15l3 2h16v2h8l1 2 10 1-3 2 5 1v2l3 1-16-1-4-1-5-2-1 2-5-1v-2l4-2 1-2-11 1h-11l-4-2-4-1z" fill="#143929"/>
<path transform="translate(533,366)" d="m0 0 13 1 55 7 5 1v2h-10l-43-5-16-3-4-2z" fill="#111010"/>
<path transform="translate(505,599)" d="m0 0 9 1 5 2v3h-6l2 5v3l-3 2-8-1-7-2-1-2 1-2-5 1-2-4v-4h3v5l6-2 1 2 7 3 1-6-3 3h-2v-2h2z" fill="#D8A657"/>
<path transform="translate(1191,781)" d="m0 0 9 3 9 5v12l-4-2-8-5-7-3z" fill="#94928D"/>
<path transform="translate(907,685)" d="m0 0h5l3 4v6l-3-3v-3l-6-1 6 6 1 4h3l1-5 3 1 1 5-8 6-4-1-6-7v-9z" fill="#4C4D4C"/>
<path transform="translate(689,582)" d="m0 0h8l15 2 2 1-1 4-3 4-4 14-4 1 1-6 3-12-9-1-4-3h-7l1-3z" fill="#F4F5F4"/>
<path transform="translate(592,609)" d="m0 0 1 3h7l41 8 2 4-10-1-24-5-13-2-1 9h-1l-2-6z" fill="#47524D"/>
<path transform="translate(804,227)" d="m0 0h1v73l-4 1-6-3-12-2-1-2h18v-9l1-2-2-1h3v12h2l-1-9v-44z" fill="#474847"/>
<path transform="translate(813,195)" d="m0 0h4v2l61 1 22 2 23 1v1h-31l-11-1-62-1v-2h-7z" fill="#4E514F"/>
<path transform="translate(1097,240)" d="m0 0h2v56h9v1h-8l-1 7h9v1l-10 1-6 1 4-4v-30z" fill="#4F504F"/>
<path transform="translate(630,574)" d="m0 0 9 1 1 2 3 1 1-2 1 35-2 1-4-9 1-4h-2l-1-5 2-3-2-9-2-5-5-1z" fill="#8E9089"/>
<path transform="translate(899,525)" d="m0 0 8 1 10 6v2l-7 4-12 1v-3l-4-2 2-1z" fill="#B7BCB9"/>
<path transform="translate(644,199)" d="m0 0 3 1-22 12-16 8-17 9h-3v2l-10 5-5 3h-3v-2l4-2 1-2 16-8 13-7 7-3 16-8z" fill="#91928E"/>
<path transform="translate(741,590)" d="m0 0 11 2 16 2v1l-11 1v2l-9-1-6 21-1 2h5l1-2v3h-7l-4-2h4l1-5h-5l-1-4 8-2-1-3-5-1v-4l8 1v-5l-3-1 1-4z" fill="#CED4CE"/>
<path transform="translate(764,236)" d="m0 0h7l4 2v2l5 2 6 7 4 8v15l-2 2v-2h-2v-15h-2l-2-5-4-5-9-6z" fill="#918F8A"/>
<path transform="translate(461,543)" d="m0 0 3 4-1 7-4 7-4 5-4 3h-2v2h-2l-1 5-8 1-6-2 3-3 11-4 5-5 6-7 2-4 1-8z" fill="#1D2823"/>
<path transform="translate(582,434)" d="m0 0 15 1 14 2 1 2v22h2v16l-1 2v51h-1l-1-22-1-44v-26l-14-1-12-1z" fill="#606662"/>
<path transform="translate(827,390)" d="m0 0h3v8l-2 5-10 4-4-1 1-9 4-4z" fill="#111010"/>
<path transform="translate(572,169)" d="m0 0 16 2 19 2 5-1 5 2 3 3h-12l1 3-6 1v2l-5-1-15-2v-1l9-2h2l4-1-4-2-18-2z" fill="#19523A"/>
<path transform="translate(451,540)" d="m0 0h9l-2 1 1 3-5 4 2-6-7 7-11 7-9 2v-7l9-3 7-3z" fill="#EDEFED"/>
<path transform="translate(611,441)" d="m0 0 3 1 1 6v73h-1l-2-21v-21l1-2 1-16h-2l-1-13z" fill="#133D2B"/>
<path transform="translate(524,453)" d="m0 0 19 1 10 3 8 5 2 4-4-2-15-6h-20l-10 5h-2l2-5 6-4z" fill="#6A6B69"/>
<path transform="translate(815,602)" d="m0 0h8l18 3 11 2-1 5-4 1-25-6-6-3z" fill="#1C1C1C"/>
<path transform="translate(553,594)" d="m0 0 11 1 6 2 2 4v4l-2 1-13-1v-2l-9-1v-1h6z" fill="#ABABA6"/>
<path transform="translate(915,534)" d="m0 0 3 1-1 7h-3l-5 5h-10v-2l-5 1 2-5 1-2 15-3z" fill="#97958F"/>
<path transform="translate(663,200)" d="m0 0 5 1 5 3 13 8 12 7 11 7 3 1v2l7 2 9 6 5 3-2 1-6-2-11-7-10-5-10-7-14-8-10-7-7-4z" fill="#ADAFAB"/>
<path transform="translate(473,733)" d="m0 0 5 2 4 4v2l3 1 2 3-1 4-7 6-1-2 4-5-1-5-3 2-1-1v6h-2l-2-4-6-2 2-6 4-2z" fill="#595958"/>
<path transform="translate(854,665)" d="m0 0 1 2-11 14-13 17-5 7h-2l1-6 4-9h3l7-11 12-11z" fill="#F1F2F0"/>
<path transform="translate(500,567)" d="m0 0h15l2 4v7l-4 2-7-4v-2l-6 2-5-1v-2l6-1z" fill="#AD997A"/>
<path transform="translate(917,587)" d="m0 0h5l1 4-4 8v6l-7 8h-1v-6l2-10-7 5 2-4z" fill="#B6BBB8"/>
<path transform="translate(911,597)" d="m0 0h2v8l-1 2v7l-6 7-4-6v-5l-3 2 1-4 5-6z" fill="#95938D"/>
<path transform="translate(873,580)" d="m0 0 16 2 7 2 14 2 1 3-2 1-13-1-21-4-3-1z" fill="#262525"/>
<path transform="translate(769,316)" d="m0 0 18 1 53 5 7 1v1h-21l-18-2-38-3z" fill="#8D8B87"/>
<path transform="translate(906,570)" d="m0 0 13 2v3h-3l-1 4 5 1-1 4h-7l-8-3v-5h-2v-3l4-2z" fill="#767776"/>
<path transform="translate(745,628)" d="m0 0 4 6v6h3v4h-6v7l-2 2h-6l2-12 2-5 2-7z" fill="#F3F4F3"/>
<path transform="translate(908,854)" d="m0 0 12 2 12 3 6 2 21 6 12 3v1h-8l-53-13-3-3z" fill="#8E8C87"/>
<path transform="translate(597,778)" d="m0 0 18 4 16 4h5l1-2 2 6 2 5h2l4 4v2l-4-1-2-4h-2l-3-4-7-3-11-2-5-2-13-2v-2h-4z" fill="#666A67"/>
<path transform="translate(866,522)" d="m0 0 2 3v5l11 1 14 2 6 2-2 4-1-2h-11l-15-2-8-3 3-9z" fill="#EDEEEC"/>
<path transform="translate(771,200)" d="m0 0 33 1 11 1 5 3v1h-10l-34-2-5-1z" fill="#363736"/>
<path transform="translate(688,232)" d="m0 0 10 2 1 4h14v1h-21l-31-2-16-2v-1l27 1 5-1 9-1z" fill="#3A3A3A"/>
<path transform="translate(699,525)" d="m0 0h2v5l-2 7-1 6h-6l-5-5 1-5 6-5z" fill="#084E32"/>
<path transform="translate(578,429)" d="m0 0 16 1 15 3 14 2 17 4 7-1h14v1l-9 1-4 2-16-1v-2l-14-1-4-2-19-3-2-1-15-1z" fill="#0A462D"/>
<path transform="translate(401,252)" d="m0 0 13 1 2 3-5 2h-35l-6-1v-2l31-1z" fill="#50514F"/>
<path transform="translate(621,621)" d="m0 0 1 2 1 5v-5l5-1-2 8 6-6 2 4v-4l7 1v8l-1 1h-5v-2l-7 1-5-2-4-1v-6z" fill="#DCDFDB"/>
<path transform="translate(619,444)" d="m0 0 24 3 1 3h-2v2h-19l-2 5-1 5h-1z" fill="#333"/>
<path transform="translate(597,617)" d="m0 0 5 1 5 5 2-4 7 1 2 1v2h-2l-1 5-1 1h-5l-8-3-2-1v-2h-2z" fill="#B8BEB9"/>
<path transform="translate(596,616)" d="m0 0h9l9 2v1l-5 1-2 4-5-5-5-2v6h2l-2 4 10 4v2l6-1h6v4l-10-1-14-4-1-1 1-10z" fill="#778E82"/>
<path transform="translate(931,589)" d="m0 0 2 3v19h-1l-1-17-8 12-9 10-5 7-3-1 1-4 9-10 8-10z" fill="#5B5C5B"/>
<path transform="translate(741,493)" d="m0 0h1l1 42v33l-2 2-3-6 2-23z" fill="#3D6F5A"/>
<path transform="translate(979,872)" d="m0 0 8 1 6 2 14 4 32 7 6 2v1h-8v-2h-12l-4-1v-2h-9l-4-1v-2l-8-1-20-5z" fill="#817F7B"/>
<path transform="translate(650,171)" d="m0 0 33 1 7 1-1 2h-14l-6 1h-25v-2l5-2z" fill="#7E9489"/>
<path transform="translate(572,168)" d="m0 0h12l5 1 2-1h16l6 1 3 4-10 1-29-3-5-2z" fill="#B1B5B1"/>
<path transform="translate(758,622)" d="m0 0h1l2 6 1 1v6l-5 8-4-1 2-6v-5l-7-1 2-7z" fill="#FAFBFA"/>
<path transform="translate(511,598)" d="m0 0h16l2 1v10l-2 6h-3v-7h-10l-2-4 8 1v-5l-9-1z" fill="#85837E"/>
<path transform="translate(729,512)" d="m0 0h1l1 5 1 28 2 10 2 8-4 2-3-6z" fill="#2C483B"/>
<path transform="translate(921,493)" d="m0 0 4 1 1 20-2 1-2 5 3 4v3l-5-1v-23z" fill="#8E8F8C"/>
<path transform="translate(735,184)" d="m0 0h7l-1 2-7 2h10l10 2-3 2-6 1-12 1-12-2 3-3 6-1v-2l-3-1z" fill="#333"/>
<path transform="translate(767,631)" d="m0 0 1 4-2 3-5 19-4 1-1-2-1-9v-4l4-4 5-1 2-6z" fill="#26503E"/>
<path transform="translate(501,465)" d="m0 0 2 2 2 3v32l-2 4-2-4z" fill="#143D2B"/>
<path transform="translate(585,562)" d="m0 0 6 1-1 42-2-3-1-2z" fill="#183F2E"/>
<path transform="translate(396,266)" d="m0 0h7l6 3 2 4-1 2h-14l-4-3 1-4z" fill="#333"/>
<path transform="translate(783,647)" d="m0 0 1 4h2l1-3h1v10h9v5l-1 1-9-1-7-3z" fill="#E3E5E0"/>
<path transform="translate(499,559)" d="m0 0h9l4 2 3 6-13 1-2-1-1 2-4-1 1-5z" fill="#C19F6A"/>
<path transform="translate(456,541)" d="m0 0 1 2-5 8-7 6-12 6h-5l3-6 8-3 10-6z" fill="#212A26"/>
<path transform="translate(701,615)" d="m0 0 10 2 3 1 13 1-1 6-3 12h-1v-7l-1-4h-2l-2-3-11-4-7-2z" fill="#0B4B31"/>
<path transform="translate(429,535)" d="m0 0 12 1v2h-3v2h10l-3 2-10 5h-6z" fill="#73897D"/>
<path transform="translate(957,414)" d="m0 0h17l2 1v2l8-1 10 2 1 3-15-1-13-2h-7l-3 1z" fill="#474747"/>
<path transform="translate(798,283)" d="m0 0h3v11l-1 1h-10l-1-1-9-1 1-3 12-3z" fill="#70706F"/>
<path transform="translate(1044,234)" d="m0 0h15l4 1v2h2v2l15 1v1h-11l-25-2v-3l-3-1z" fill="#9A9893"/>
<path transform="translate(739,687)" d="m0 0 14 2 46 10 10 2 1 2-9-1-14-3-17-4-17-3-12-3z" fill="#5E6360"/>
<path transform="translate(808,557)" d="m0 0h10l18 2-2 6-8-1-14-3z" fill="#1A1919"/>
<path transform="translate(862,533)" d="m0 0 8 1 23 3v3l-2 1h-9l-16-3-3-1z" fill="#252424"/>
<path transform="translate(713,188)" d="m0 0h7l-2 2-21 6-7 1h-11l1-2 28-6z" fill="#686968"/>
<path transform="translate(542,221)" d="m0 0h5l-5 5h-2v2h-2l-1 3h-3l-2 7 1 18 2 6h-2l-4-10v-17l6-8z" fill="#6A6B6A"/>
<path transform="translate(580,610)" d="m0 0 5 2 1 14-14-1-5-1-2-4h10l5 1v2h2z" fill="#353535"/>
<path transform="translate(849,324)" d="m0 0h13l51 5 5 1v1h-13l-30-3-16-1-10-2z" fill="#8E8C87"/>
<path transform="translate(775,529)" d="m0 0h1l1 52-9-1-8-4h-3v-2l-2-1 12 1 8 2z" fill="#516059"/>
<path transform="translate(451,419)" d="m0 0h1l3 20v5h2l1 5h2v3l5 1v2h-9l-3 1-2-26z" fill="#295140"/>
<path transform="translate(615,538)" d="m0 0 2 3-1 12-1 1h-9l-4-1v-2l-11-1-7-2-1-3h6l5 2 18 3 2-1z" fill="#0E412C"/>
<path transform="translate(1162,197)" d="m0 0 10 1v3l-10 4-8 3-6-1 2-4 4 1v-3h3v-3z" fill="#055536"/>
<path transform="translate(751,630)" d="m0 0 5 1-1 7-1 4 2 5v9l-5-1-1-11h2v-4h-3l1-8z" fill="#E6E8E5"/>
<path transform="translate(752,601)" d="m0 0 3 1v7l2 13h-6v-7h-4l1-6z" fill="#294035"/>
<path transform="translate(540,505)" d="m0 0 5 2 1 4h2v6l-3 3-4-1-4-5v-7h3z" fill="#074B2F"/>
<path transform="translate(466,418)" d="m0 0h10l23 4v1h-17l-1 1-9-1-5-4 2 5v21h-1l-1-17z" fill="#BDC4BE"/>
<path transform="translate(890,636)" d="m0 0v3l-3 5h-2l-2 5-7 8-4 4-3-1 3-5 4-8 3-3 7-4z" fill="#515251"/>
<path transform="translate(709,304)" d="m0 0h12l17 1 7 1 16 2 13 2v1l-22-1-36-4-7-1z" fill="#737473"/>
<path transform="translate(773,633)" d="m0 0 10 1 2-1v7l-3 6-4 2h-7v-1l6-1 1-6h-6z" fill="#232A26"/>
<path transform="translate(467,731)" d="m0 0h7l1 2h-2l1 4-5 1-1 6 6 2 1 2-6-1-1 2-1-4h-11l-1-2 7-1z" fill="#3C3C3C"/>
<path transform="translate(826,521)" d="m0 0 1 2-4 17-5 12h-4l1-7 10-23z" fill="#232222"/>
<path transform="translate(645,772)" d="m0 0 5 5 6 7 3 2v4l-5 4-1 2h-2l2-8h-2l-4-7v-3h-2v-2l-2-1h2z" fill="#373737"/>
<path transform="translate(614,619)" d="m0 0 15 2 9 2-3 2v5l-2-2-2-3-3 5h-2v-5l2-3-4 1v5l-2 1-1-7-1 2v7l-4-2-4 1 3-3 1-4h2v-2z" fill="#6E8378"/>
<path transform="translate(437,560)" d="m0 0 8 1 5 4-8 4-7 1-2-3-3-1 1-3z" fill="#708B7D"/>
<path transform="translate(666,509)" d="m0 0h12l6 2 8-1 2 3-24 1-7 5-3 3 2-6 3-6z" fill="#686967"/>
<path transform="translate(730,638)" d="m0 0h7v2l4 1-2 9h-2l-1-2-6 1v2h-2v-8z" fill="#134A34"/>
<path transform="translate(678,598)" d="m0 0 2 1 2 7 3 2 1 4 9 1v1h-10l-10-3-4-3 1-7 2-1v6h2v2h2l-1-2v-7z" fill="#D8DBD6"/>
<path transform="translate(616,439)" d="m0 0 33 4v4l-26-3h-7z" fill="#E5E7E3"/>
<path transform="translate(1239,730)" d="m0 0 6 1 10 5 2 5v3l-4-1-5-4-9-4-1-4z" fill="#D2D3CF"/>
<path transform="translate(613,515)" d="m0 0h1l2 21-1 13-4 2-13-3h-6l-3-3 24 3z" fill="#444544"/>
<path transform="translate(875,496)" d="m0 0 2 3h-2v11l-6 18-2-3-2-4z" fill="#E5E5DE"/>
<path transform="translate(660,504)" d="m0 0h9l15 2 2 1 1-3 2 4 3 2-4 2-7-1-13-2-2-3-6-1z" fill="#414241"/>
<path transform="translate(603,180)" d="m0 0 13 1 5-1 3 2 10 1v2l3 2-7 1-2-3-6-1-2 1h-9l-9-1z" fill="#173B2B"/>
<path transform="translate(437,583)" d="m0 0h9l6 3 2 2v4h-3l-5-5-1 9-5-1v-2h2l1-6-6 1z" fill="#C4C6C3"/>
<path transform="translate(1020,191)" d="m0 0h17l42 2 3 1v2l-19-1-6-1-37-1z" fill="#5C615E"/>
<path transform="translate(729,605)" d="m0 0 1 2-3 11h-14l-2-3 6-2 4-4 5 1z" fill="#FAFBFA"/>
<path transform="translate(1124,198)" d="m0 0h7l1 2 10 1-3 2 5 1v2l3 1-16-1-4-1-2-1v-3h-3v-2z" fill="#103E2B"/>
<path transform="translate(768,647)" d="m0 0h1l2 7 5 1v4l-15-1 1-9 3-1 3 1z" fill="#F7F8F7"/>
<path transform="translate(563,217)" d="m0 0 10 1 2 2-4 2-7 1h-8l-7-3 1-2z" fill="#111010"/>
<path transform="translate(969,848)" d="m0 0 9 1 49 12 2 2-8-1-38-9-14-3z" fill="#8D8B86"/>
<path transform="translate(742,624)" d="m0 0h4l-1 5-2 7-1 3h-2l-1-8-2 2h-5v-6l1-1h9z" fill="#33463D"/>
<path transform="translate(1113,207)" d="m0 0h13l-3 5-2 1h-19v-3l10-2z" fill="#9B9E98"/>
<path transform="translate(747,615)" d="m0 0h4v7l7-1v2h-8l-1 6 2 1-1 6-3-1-2-2v-9l-5-2v-1h7z" fill="#EBEDE9"/>
<path transform="translate(618,477)" d="m0 0h1l1 35v26h-2l-1-12z" fill="#456E5D"/>
<path transform="translate(866,196)" d="m0 0h13l3 1 22 2 22 1 2 2-30-1-33-3z" fill="#025937"/>
<path transform="translate(683,172)" d="m0 0 47 1 1 2-43 1 1-2-6-1z" fill="#353535"/>
<path transform="translate(484,590)" d="m0 0 5 1 8 3v1l-8 1 3 1v2h2v3h2v3h-3v-4h-3l1 7-4-2z" fill="#67635B"/>
<path transform="translate(552,223)" d="m0 0 5 1 5 4 14-2v4l-5 5-4 1-10-9-5-3z" fill="#757674"/>
<path transform="translate(469,550)" d="m0 0h1v10l-1-2-4 1-2 5-5 4h-5v-2l5-5 4-7 6-1z" fill="#B7BDB9"/>
<path transform="translate(713,231)" d="m0 0 8 4 11 8 12 8-1 3-27-18-1-1-2 3z" fill="#404040"/>
<path transform="translate(568,236)" d="m0 0h2l3 4h-2v17l-2-3-3 6-1-2 1-6h-1v-13l3 1z" fill="#484948"/>
<path transform="translate(384,727)" d="m0 0 11 1 29 7-1 3-18-4-20-5z" fill="#424242"/>
<path transform="translate(676,195)" d="m0 0 4 1v2h-3l12 6 5 6-9-3-16-8v-2z" fill="#474747"/>
<path transform="translate(727,179)" d="m0 0h5l-4 2-18 4-8 2-10 1h-9l1-2z" fill="#CDD0CB"/>
<path transform="translate(884,702)" d="m0 0 5 1 8 3h4l2 2v4l-4-1v-3l-3 1h-9l-6-2 1-4z" fill="#686967"/>
<path transform="translate(443,581)" d="m0 0 8 1 5 3 4 1h-3v9h-6l-5-6v-2l4 2 1 3h3l-2-5-6-3h-7l-1-2z" fill="#4C4D4B"/>
<path transform="translate(511,553)" d="m0 0 4 1 4 5 2 6h2l1 3v15h-2l-2 6-5 4v-3l6-8v-11l-3-9-4-5-3-2z" fill="#96938D"/>
<path transform="translate(1226,367)" d="m0 0 11 2 6 1 1 4h-18l-1-1v-5z" fill="#4D4D4D"/>
<path transform="translate(369,249)" d="m0 0h2v3l12 1v-2h18l1 4h-20l-10-1-2-1z" fill="#242323"/>
<path transform="translate(542,166)" d="m0 0h22l6 2-2 2h-20l-6-2z" fill="#9DA5A0"/>
<path transform="translate(538,477)" d="m0 0h5l4 5 2 7-4-1-2-2h-8l1-6z" fill="#3D3D3B"/>
<path transform="translate(785,491)" d="m0 0h15l-2 4-16 3-4 1 1-4z" fill="#A2A49E"/>
<path transform="translate(511,463)" d="m0 0 1 2-3 9v32l-3-3v-29l2-9z" fill="#3B6B57"/>
<path transform="translate(581,756)" d="m0 0h2l-2 5-6 8 1 7 5 6 2 1v2l-4-2-9-9-3-2 4-2z" fill="#A4A5A1"/>
<path transform="translate(495,550)" d="m0 0h4v2l-6 5-2 4v13l3 9h-2l-3-5-1-4v-16l5-7z" fill="#4B4C4B"/>
<path transform="translate(799,282)" d="m0 0h3v12h2v6l-3 1-6-3-12-2-1-2h18v-9l1-2z" fill="#343434"/>
<path transform="translate(625,592)" d="m0 0h3l6 15-1 6-2-1-4-9v-2h-2l-1-2v-6z" fill="#515251"/>
<path transform="translate(414,229)" d="m0 0h1v24h-13l-1-1-18-1v-1l28-1 3 1z" fill="#787976"/>
<path transform="translate(456,493)" d="m0 0 16 1v3l-14-1v26h-1l-1-6z" fill="#1E4132"/>
<path transform="translate(747,488)" d="m0 0h15l16 2v3h-16l-5-2v-2l-2 1h-6z" fill="#A4ADA8"/>
<path transform="translate(644,199)" d="m0 0 3 1-22 12-16 8-3-1 10-6 16-8z" fill="#989A97"/>
<path transform="translate(697,589)" d="m0 0 4 1-4 16-2 1-1-7-1-3h-2v-2h-2l-1-4 5 1 4 2zm-4 18 2 1z" fill="#DFE3DE"/>
<path transform="translate(483,592)" d="m0 0h2l3 14 5 2h4v4l-10-1-3-3-1-5z" fill="#B99C6E"/>
<path transform="translate(535,554)" d="m0 0 10 1 22 3 6 2v1l-17-1-16-3h-3l-2 3z" fill="#D6DAD5"/>
<path transform="translate(548,509)" d="m0 0h12l16 3v6h-1v-5l-3 1h-10l-13-3z" fill="#868581"/>
<path transform="translate(974,414)" d="m0 0h10l36 5v1h-11l-15-1-10-2h-8v-2z" fill="#333"/>
<path transform="translate(1142,837)" d="m0 0 5 1 11 6 3 2v12l-4-1-1-4h2l1-5-4-2v-2l-6-2-8-2z" fill="#84827E"/>
<path transform="translate(729,798)" d="m0 0 2 1-12 12 2 1h-9l2-6 2-5 4 1 1 2 4-2z" fill="#424242"/>
<path transform="translate(473,733)" d="m0 0 5 2 3 3v2l-6-2v9l-8-3 2-6 4-2z" fill="#949491"/>
<path transform="translate(533,583)" d="m0 0 2 1 1 7 1 27-3-2-1-17z" fill="#0A5738"/>
<path transform="translate(857,467)" d="m0 0 12 1 6 1-3 4-16-2-10-1v-1z" fill="#D5D9D3"/>
<path transform="translate(1039,308)" d="m0 0h14l10 2-2 1v2h-16l-1-4h-5z" fill="#999994"/>
<path transform="translate(488,751)" d="m0 0 9 1 9 3-1 2 12 3v1l-9-1-20-5z" fill="#404140"/>
<path transform="translate(731,629)" d="m0 0 1 4 6-2 2-1 1 10-10-1-2 2v-8z" fill="#446154"/>
<path transform="translate(917,693)" d="m0 0 3 1 1 5-8 6-4-1-2-4h5v-3l-3-1 3-1 1 3h3z" fill="#282727"/>
<path transform="translate(540,616)" d="m0 0 12 4 27 5v1h-10l-4-1h-12l-7-2v-2l-6-3z" fill="#858682"/>
<path transform="translate(1112,198)" d="m0 0h9l-1 3-4 1v2l3 1h-5l-1 1h-5l-5-5h7v-2z" fill="#045233"/>
<path transform="translate(704,787)" d="m0 0h3l-7 14 1 5 6 9-2 1-9-11 1-7 3-1 1-5z" fill="#8C8D8A"/>
<path transform="translate(715,590)" d="m0 0 4 1v2h-2l-1 9-3 12-1-3h-3l3-12z" fill="#9CA7A1"/>
<path transform="translate(662,306)" d="m0 0h12l29 3-3 2h-9l-17-2-12-2z" fill="#8D8B86"/>
<path transform="translate(568,252)" d="m0 0 2 2-1 9-7 8-5 1-1-2 3-1 5-9 2-1z" fill="#5C5D5C"/>
<path transform="translate(496,599)" d="m0 0 9 2v3h-2v2l6-4-1 5-1 2h-6l-3-4-6 2 1-2h3z" fill="#8B8374"/>
<path transform="translate(637,217)" d="m0 0 4 1-6 5-5 2-12 6-5 4h-2v-2l10-7 11-6z" fill="#666766"/>
<path transform="translate(503,571)" d="m0 0 7 1 6 3-1 4h-3l-6-3v-2l-6 2-5-1v-2l7-1z" fill="#4D4E4D"/>
<path transform="translate(700,310)" d="m0 0h15l18 2-4 3-29-3z" fill="#8D8B87"/>
<path transform="translate(674,306)" d="m0 0h12l18 2 20 1 9 2v1h-10l-49-5z" fill="#434443"/>
<path transform="translate(1101,198)" d="m0 0h9v3l-5 1 3 4h-13l2-4h2v-3z" fill="#1C553F"/>
<path transform="translate(919,572)" d="m0 0 8 2v5h-3v2h-3v2l-2-1 1-2-5-1 1-4 3-2z" fill="#B2B7B3"/>
<path transform="translate(665,556)" d="m0 0 10 6 3 1h13l7-4 4-2-1 5-7 3-15 1-9-4-5-4z" fill="#383B39"/>
<path transform="translate(891,540)" d="m0 0 1 2-13 25-6 10-1-2 10-19 6-14z" fill="#92908B"/>
<path transform="translate(441,536)" d="m0 0 14 3-4 2-9 7-5-2 2-2 6-3-7-1v-2h3z" fill="#6B716D"/>
<path transform="translate(520,454)" d="m0 0h8l12 2v1l-16 1-10 5h-2l2-5z" fill="#9D9D99"/>
<path transform="translate(931,589)" d="m0 0 2 3v19h-1l-1-17-7 11-5 1 2-5 9-10z" fill="#525251"/>
<path transform="translate(650,171)" d="m0 0 11 1v2l8 1v1h-25v-2l5-2z" fill="#6F8076"/>
<path transform="translate(587,623)" d="m0 0h1v5l-1 1h-11l-18-4v-1h7l4 1 17 1z" fill="#ADB3AF"/>
<path transform="translate(585,578)" d="m0 0 2 1v19l-1 7-2 1v-25z" fill="#88948B"/>
<path transform="translate(739,391)" d="m0 0 7 2 27 4v1l-19-1-12-1-4-1z" fill="#737473"/>
<path transform="translate(552,609)" d="m0 0h4v4h3l-1-3 6 1v2l5 2v4l-9-2-1-2-3 1v-2h-2z" fill="#C7CAC7"/>
<path transform="translate(519,607)" d="m0 0 5 1v6h-6l-6 1-1-2 3-1-3-2 3-2z" fill="#D8A558"/>
<path transform="translate(545,229)" d="m0 0h2l1 29-2 3-2-12 1-9z" fill="#737473"/>
<path transform="translate(442,557)" d="m0 0 2 1h3l1-1h7v3l-4 4-5-1-1-1-7-1v-2z" fill="#E3E5DF"/>
<path transform="translate(813,195)" d="m0 0h4v2l36 2v1h-34v-2h-7z" fill="#758C7F"/>
<path transform="translate(721,179)" d="m0 0h6v1l-32 5h-12v-1l14-2 1-1z" fill="#DCA755"/>
<path transform="translate(589,625)" d="m0 0 2 2v5l-4 1-5-2-11-1-7-2v-1l12 1h11z" fill="#114C34"/>
<path transform="translate(1131,208)" d="m0 0h16l-1 2-12 3h-10v-2z" fill="#C4C8C5"/>
<path transform="translate(676,475)" d="m0 0h15l16 3 2 1v3l4 2h-3l-10-3v-2l-10-2-14-1z" fill="#858A84"/>
<path transform="translate(1084,195)" d="m0 0h4 8l-2 4-5-1-1 2-9 1-5-2 2-2h6l2 1z" fill="#4F5150"/>
<path transform="translate(621,180)" d="m0 0 11 1 10-1 2 2-3 2v2h-10l3-1v-2h-10z" fill="#0C4830"/>
<path transform="translate(761,629)" d="m0 0h1v6l-5 8-4-1 3-11z" fill="#F4F4F3"/>
<path transform="translate(998,218)" d="m0 0h3v31h-1l-1-13h-1z" fill="#525352"/>
<path transform="translate(482,184)" d="m0 0h19v2l-24 3 3-3h2z" fill="#333"/>
<path transform="translate(895,174)" d="m0 0 7 1 9 5v2l-13-1-3-5z" fill="#8F8F8C"/>
<path transform="translate(744,606)" d="m0 0 1 2-4 12h5l1-2v3h-7l-4-2h4l1-5h-5l-1-4z" fill="#C0C6C0"/>
<path transform="translate(616,437)" d="m0 0 13 1 3 1v2l-15-1-1 17h-1l-1-9v-9z" fill="#376954"/>
<path transform="translate(643,182)" d="m0 0h26v1l-25 3-4-2z" fill="#0A5839"/>
<path transform="translate(592,609)" d="m0 0 1 3h7l4 2-1 2h-7l-1 9h-1l-2-6z" fill="#4C524F"/>
<path transform="translate(588,436)" d="m0 0 16 1 5 1-1 3-15-1-7-1 1-2z" fill="#C9CDC9"/>
<path transform="translate(947,203)" d="m0 0h26l8 2v1h-21l-14-1z" fill="#264C3D"/>
<path transform="translate(832,830)" d="m0 0 4 1 2 4-2 4 4 2h-9l-3 2 1-5h2z" fill="#3B3C3B"/>
<path transform="translate(707,590)" d="m0 0 4 1-5 16-4 1 1-6 3-10z" fill="#DFE2DC"/>
<path transform="translate(909,474)" d="m0 0 4 1h-3l-2 9-5 13h-2l2-12 2-3 2-6z" fill="#71716F"/>
<path transform="translate(438,548)" d="m0 0 2 1-3 5 1 2-9 2v-7z" fill="#869B90"/>
<path transform="translate(893,522)" d="m0 0 1 2 5 1-1 4-2 5-5-1 1-4-1-4z" fill="#989690"/>
<path transform="translate(920,503)" d="m0 0h1v9h5v2l-2 1-2 5 3 4v3l-5-1z" fill="#979B98"/>
<path transform="translate(1155,403)" d="m0 0 9 2 10 4v2l-20-3z" fill="#60615F"/>
<path transform="translate(913,686)" d="m0 0 4 1 2 6h-2l-1 5h-3l-2-6-5-2v-2l6 1 2 5z" fill="#686967"/>
<path transform="translate(875,647)" d="m0 0 1 3-4 6-3 6 2 1-3 2v-2l-2-1 1-6 4-5h2zm-10 13m-1 1m-1 1 3 2-1 2z" fill="#6A6B6A"/>
<path transform="translate(431,574)" d="m0 0 9 2h2v2l-3 2h8l-4 2-6 1-3-2-4-2h2v-2l-3-1z" fill="#0B4A31"/>
<path transform="translate(544,224)" d="m0 0h3l-2 4-9 9-3 1 1-4 4-6h2v-2z" fill="#111010"/>
<path transform="translate(598,625)" d="m0 0 10 2 7 4-4 3-4-1-1-2-10-4z" fill="#49554F"/>
<path transform="translate(536,601)" d="m0 0 2 1 2 13 1 3 8 3v1h-7l-4-2-2-5z" fill="#8B9B92"/>
<path transform="translate(460,541)" d="m0 0 4 1 5 6v5l-5 1-1 2v-9l-3-3z" fill="#E4E6E2"/>
<path transform="translate(501,756)" d="m0 0 9 1 21 5 2 1v2l-8-1-8-2v-2l-8-1-8-2z" fill="#656665"/>
<path transform="translate(864,687)" d="m0 0h2v5l4-2 1-2h3v2l7 1v3h-6l-3-3-1 3h-7z" fill="#3C3C3B"/>
<path transform="translate(597,617)" d="m0 0 5 1 4 3v4l-5 1-2-1v-2h-2z" fill="#DADDD8"/>
<path transform="translate(540,614)" d="m0 0 7 1 14 4v1h-13l-7-3z" fill="#232323"/>
<path transform="translate(423,485)" d="m0 0h2l1 8v14l-2 2-1-3z" fill="#064C30"/>
<path transform="translate(760,625)" d="m0 0 3 1 4 1 1 4-4 7-4 1 1-10z" fill="#134F36"/>
<path transform="translate(457,586)" d="m0 0 9 1 2 5h-7l-1 1v2h-2l-1-2z" fill="#DFE2DD"/>
<path transform="translate(564,166)" d="m0 0 45 1v1l-18 1-3 1-4-1h-12-3v-1l-5-1z" fill="#626A65"/>
<path transform="translate(1011,306)" d="m0 0 5 2 7 4 13 2v1l-5 1 3 2-7-1-10-5-6-4z" fill="#404140"/>
<path transform="translate(1162,197)" d="m0 0 10 1v1l-7 1-3 3-8 2v-4h3v-3z" fill="#074D31"/>
<path transform="translate(616,172)" d="m0 0 21 2v2l-7 1-7-1-3 1-3-2-4-2z" fill="#9A9C97"/>
<path transform="translate(787,658)" d="m0 0h10v5l-1 1-9-1-1-4z" fill="#EDEEEC"/>
<path transform="translate(790,642)" d="m0 0 1 2 5 1 1 4-5 1-2-2-2 4-1-3-1 2h-2v-4l4-1z" fill="#DEE1DB"/>
<path transform="translate(575,614)" d="m0 0h5l2 4v5h-2v-2l-9-1v-2l3-1z" fill="#C1C2BD"/>
<path transform="translate(596,433)" d="m0 0 10 1 8 1 2 3-3 4-2-1v-3l-14-2z" fill="#035535"/>
<path transform="translate(699,525)" d="m0 0h2v5l-2 7-1 6h-6l-5-5 1-3 5 6h3l-1-8 1-3 3-1z" fill="#3E5F51"/>
<path transform="translate(818,321)" d="m0 0h12l17 2v1h-21l-8-1z" fill="#8F8C87"/>
<path transform="translate(942,841)" d="m0 0 19 4 8 2v2l-13-2-13-3z" fill="#8F8D88"/>
<path transform="translate(751,630)" d="m0 0 5 1-1 7-2 2h-4l1-8z" fill="#2F453B"/>
<path transform="translate(533,614)" d="m0 0 5 5-3 2h-9l-10-3 4-1 10 1z" fill="#0F4C33"/>
<path transform="translate(731,595)" d="m0 0h3l-3 11h-2l-2 5-6-1-3 2 2-4h6l2-5 1-7z" fill="#CED2CD"/>
<path transform="translate(622,551)" d="m0 0 8 1 7 3h9l1 1 4 1-8 1-10-1-3-2-8-1z" fill="#163326"/>
<path transform="translate(764,236)" d="m0 0h7l4 3-1 1 5 5-3 1-8-6z" fill="#898884"/>
<path transform="translate(634,624)" d="m0 0 7 1v8l-5 1z" fill="#BEC2BC"/>
<path transform="translate(460,596)" d="m0 0h12v6l-7-1-5-2z" fill="#E8EAE5"/>
<path transform="translate(733,590)" d="m0 0h8l2 1 1 4h-9l-5 2-1-3 4-2z" fill="#F6F6F6"/>
<path transform="translate(423,412)" d="m0 0h7l16 3 3 2h-8l-16-2z" fill="#7A9285"/>
<path transform="translate(783,642)" d="m0 0 1 2-3 14-2 2v-3h-2l-1 2v-4h-5v-1h7l1-5 2-1z" fill="#38604F"/>
<path transform="translate(643,625)" d="m0 0 2 2v10l-2 4-8-1 6-3z" fill="#77897E"/>
<path transform="translate(616,439)" d="m0 0 16 2v3h-16z" fill="#E8EAE6"/>
<path transform="translate(747,271)" d="m0 0 2 1 4 7 1 3 3 1-2 2-4-1-5-8z" fill="#797977"/>
<path transform="translate(761,233)" d="m0 0 9 1v2l-4 1 4 5-6 1-3-2 1-6z" fill="#5C5D5C"/>
<path transform="translate(663,200)" d="m0 0 5 1 5 3 13 8-1 2-5-2-10-7-7-4z" fill="#969895"/>
<path transform="translate(466,588)" d="m0 0 3 1v6l3 1-7 1-5-3-1-5 2 2 7 1z" fill="#626663"/>
<path transform="translate(896,536)" d="m0 0h1l-1 7-4 7-3-2 2-6 2-5z" fill="#F8F8F7"/>
<path transform="translate(470,418)" d="m0 0 12 1 17 3v1l-20-1-9-3z" fill="#718C7E"/>
<path transform="translate(551,225)" d="m0 0 6 1 8 7-1 3-8-5-5-3z" fill="#353535"/>
<path transform="translate(1122,203)" d="m0 0 10 1v1l7 1v1h-30l4-1 1-2h7z" fill="#555756"/>
<path transform="translate(939,201)" d="m0 0m-11 0h10l5 2v1h-14l-17-1v-1z" fill="#214738"/>
<path transform="translate(1089,194)" d="m0 0h15l3 2-1 3h-7l-4-2-4-1z" fill="#1F342B"/>
<path transform="translate(834,190)" d="m0 0h14l2 5-15-2-5-1z" fill="#0B472E"/>
<path transform="translate(979,872)" d="m0 0 8 1 6 2 10 3v2l-11-2-12-3z" fill="#8A8884"/>
<path transform="translate(625,621)" d="m0 0 8 1 5 1-3 2v5l-2-2-2-3-3 5h-2v-5l2-3-3 1z" fill="#6E7A72"/>
<path transform="translate(499,559)" d="m0 0h9l3 3-8-1v2h-3l-1 4h-3l1-6z" fill="#6E6D6A"/>
<path transform="translate(662,511)" d="m0 0h2l-1 5-3 9-3-1-1-6 1-2h2l2-4z" fill="#075939"/>
<path transform="translate(983,416)" d="m0 0 9 1 3 2v2l-15-1v-3z" fill="#494949"/>
<path transform="translate(685,213)" d="m0 0 4 1 9 5 9 6-2 1-10-5-9-6z" fill="#B7B9B5"/>
<path transform="translate(537,164)" d="m0 0 17 1v1h-12l-1 3h-15l-2-2h15l1-2z" fill="#7E847F"/>
<path transform="translate(636,784)" d="m0 0h1l2 6 2 5h2l4 4v2l-4-1-2-4h-2l-6-8z" fill="#AAABA7"/>
<path transform="translate(733,626)" d="m0 0 9 1-5 6h-5v-6z" fill="#142A20"/>
<path transform="translate(628,619)" d="m0 0h8l6 2 1 3-10-1-5-2z" fill="#19553D"/>
<path transform="translate(511,598)" d="m0 0h16l1 4h-4l-1 3h-2l-1-5-9-1z" fill="#4A4B4A"/>
<path transform="translate(683,595)" d="m0 0 4 2 4 5v3l-5-1-4-4z" fill="#E3E5DF"/>
<path transform="translate(553,594)" d="m0 0 11 1 1 2h-2v2h-3l-1 2-5-1z" fill="#EDEEEA"/>
<path transform="translate(651,549)" d="m0 0h1v8h-8l-2-1-9-1-3-3 9 1 12 2z" fill="#474746"/>
<path transform="translate(514,164)" d="m0 0h6v2l4 1-14 1-11-1v-1z" fill="#7D9387"/>
<path transform="translate(505,599)" d="m0 0 9 1 5 2v3h-4v-2l-4-1-2-1-4 5h-2v-2h2z" fill="#E5E7E1"/>
<path transform="translate(480,578)" d="m0 0h1l2 16v9h-2l-1-6z" fill="#1F4937"/>
<path transform="translate(873,470)" d="m0 0h11l4 2-6 2-10-1-2-2z" fill="#E8E9E5"/>
<path transform="translate(428,415)" d="m0 0h8l5 1h12l-2 9h-1v-7h-12l-10-1z" fill="#E0E3DE"/>
<path transform="translate(1117,863)" d="m0 0 10 3 12 6-3 1-18-7z" fill="#909390"/>
<path transform="translate(553,598)" d="m0 0 1 4 3 2h-7l-12-4v-1h13l2 1z" fill="#93938F"/>
<path transform="translate(1029,315)" d="m0 0h16l5 2v1h-16l-5-2z" fill="#727271"/>
<path transform="translate(922,837)" d="m0 0 9 1 11 3 1 2-9-1-12-3z" fill="#92908A"/>
<path transform="translate(793,637)" d="m0 0 9 1v1h-5v7l-6-2 1-6z" fill="#314A3E"/>
<path transform="translate(472,596)" d="m0 0h1v7l-10 1-7-1v-3l12 1 4 1z" fill="#4A4D4B"/>
<path transform="translate(435,540)" d="m0 0h13l-3 2-8 4h-3v-5z" fill="#D3D7D2"/>
<path transform="translate(849,324)" d="m0 0h13l13 2v1h-16l-10-2z" fill="#8D8B86"/>
<path transform="translate(750,315)" d="m0 0h15l5 2v1h-12l-8-1z" fill="#918E89"/>
<path transform="translate(1134,196)" d="m0 0 2 1 15 1-3 2h-8l-8 1-1-4z" fill="#275A45"/>
<path transform="translate(480,742)" d="m0 0 2 1 1 5-5 5v-2l-2-1v-7h3z" fill="#383838"/>
<path transform="translate(883,693)" d="m0 0 12 1 1 4-10-1-3-1z" fill="#393838"/>
<path transform="translate(576,504)" d="m0 0h1v6l-1 2-8-1-4-2v-1l8-1 4 1z" fill="#404040"/>
<path transform="translate(611,441)" d="m0 0 3 1v19h-2l-1-13z" fill="#111010"/>
<path transform="translate(610,176)" d="m0 0 7 1 3 3-5 2-6-1-1-4z" fill="#054F32"/>
<path transform="translate(571,770)" d="m0 0h2l2 5 6 7 2 1v2l-4-2-9-9-3-2z" fill="#BBBDB8"/>
<path transform="translate(610,636)" d="m0 0 11 1 10 2 2 1-1 2-20-4z" fill="#075032"/>
<path transform="translate(689,582)" d="m0 0h8l7 1v1l-7 2h-4-7l1-3z" fill="#E2E4DE"/>
<path transform="translate(698,526)" d="m0 0h2l-1 4-5 1-1 3-5 3 1-5 5-4z" fill="#222121"/>
<path transform="translate(578,525)" d="m0 0 1 2-3 5-4 2-1 2-5 1 6-8 1-2z" fill="#1D4132"/>
<path transform="translate(515,525)" d="m0 0h3l4 5 6 4 9 4v2l-10-3v-2l-5-2-7-7z" fill="#1C201E"/>
<path transform="translate(782,522)" d="m0 0h7l4 2-12 2-2 3h-2l-1 2 1-5z" fill="#38413C"/>
<path transform="translate(482,422)" d="m0 0h10l7 1-1 13h-1l-1-10-1-1-14-1z" fill="#DEE0DB"/>
<path transform="translate(773,239)" d="m0 0 6 2 5 5-1 3 1 4-5-5-2-3v-2z" fill="#A9ADAA"/>
<path transform="translate(711,200)" d="m0 0 2 1-3 3-4 1h-9v-2l6-2z" fill="#707170"/>
<path transform="translate(631,624)" d="m0 0 2 1 2 4h1v5l-1-2-7 1 1-6z" fill="#D4D6D2"/>
<path transform="translate(488,595)" d="m0 0 9 1 6 3-1 3-6-3v3h-2v-3h-2v-2l-4-1z" fill="#C2C3BD"/>
<path transform="translate(547,511)" d="m0 0h1v6l-3 3-4-1-4-5 1-2 6 5 2-5z" fill="#363837"/>
<path transform="translate(520,348)" d="m0 0h5l1 1v5l-9-1 1-4z" fill="#333"/>
<path transform="translate(746,256)" d="m0 0 1 2h2l2 12 1 4-4-3-2-4z" fill="#3D3D3D"/>
<path transform="translate(1e3 878)" d="m0 0 16 4v2h-7l-4-1v-2l-5-1z" fill="#7B7A76"/>
<path transform="translate(963,871)" d="m0 0h12l4 1 1 2 4 2-9-1-12-3z" fill="#61615F"/>
<path transform="translate(462,746)" d="m0 0h5l7 9v2l-4-2-6-5v-2h-2z" fill="#979894"/>
<path transform="translate(844,692)" d="m0 0 2 4-7 7-1 2h-2v-4h2l2-5z" fill="#575857"/>
<path transform="translate(746,644)" d="m0 0 5 1v10h-1l-1-7v2l-1 3-9 1v-1l6-2z" fill="#4B6559"/>
<path transform="translate(735,594)" d="m0 0 7 1v2l-6 3-1 4v-2h-2l1-7z" fill="#1A1E1C"/>
<path transform="translate(456,454)" d="m0 0 9 1 2 1v2l2 1-12-1-2-3z" fill="#D7DAD6"/>
<path transform="translate(529,397)" d="m0 0 3 1v18l1 5-4-1z" fill="#111010"/>
<path transform="translate(1088,208)" d="m0 0h11l-3 3h-16l3-2z" fill="#E0E3DD"/>
<path transform="translate(607,168)" d="m0 0 25 1 7 1v1l-12 1-3-1-17-2z" fill="#9CA09B"/>
<path transform="translate(572,168)" d="m0 0h12l9 1 1 2-6 1-11-1-5-2z" fill="#D7DAD5"/>
<path transform="translate(950,865)" d="m0 0 21 5v1h-8l-16-4z" fill="#8A8884"/>
<path transform="translate(508,600)" d="m0 0 7 3-2 2 2 5-7-1z" fill="#B5A991"/>
<path transform="translate(914,576)" d="m0 0 2 1-1 2 5 1-1 4h-7l1-3-2-1z" fill="#93918C"/>
<path transform="translate(733,564)" d="m0 0h3l4 8h-11l-4-2h10l-2-3z" fill="#163B2B"/>
<path transform="translate(1073,199)" d="m0 0 11 1h3l1 3-6-1v2h-2v-2l-8 2-2-2z" fill="#064D31"/>
<path transform="translate(497,753)" d="m0 0 9 2-1 2 12 3v1l-9-1-10-3-4-3z" fill="#4F504F"/>
<path transform="translate(891,705)" d="m0 0 6 1h4l2 2v4l-4-1v-3l-5 1-3-1z" fill="#434342"/>
<path transform="translate(747,615)" d="m0 0h4v7l7-1v2h-9l-3-2z" fill="#E4E7E1"/>
<path transform="translate(509,610)" d="m0 0 6 2-3 3-8-1-5-1 4-2z" fill="#96938D"/>
<path transform="translate(800,500)" d="m0 0h1v7h2v9h-2v6h-1z" fill="#084B30"/>
<path transform="translate(709,480)" d="m0 0 6 2 10 10-2 2-4-5-10-7z" fill="#4C4D4C"/>
<path transform="translate(722,388)" d="m0 0 15 1 1 2-1 3-4-1-1-3-6 1-4-1z" fill="#111010"/>
<path transform="translate(1039,308)" d="m0 0h14l-1 4h-8v-3h-5z" fill="#A7A9A5"/>
<path transform="translate(706,204)" d="m0 0 4 1-1 1 8 4-1 3-10-5-6-2v-1z" fill="#4C4C4C"/>
<path transform="translate(612,170)" d="m0 0h12l8 3v1l-12-1-8-2z" fill="#70716F"/>
<path transform="translate(483,743)" d="m0 0 4 2-1 4-7 6-1-2 4-5z" fill="#C6C8C4"/>
<path transform="translate(907,685)" d="m0 0h5l3 4v6l-3-3v-3l-7-2z" fill="#434343"/>
<path transform="translate(599,616)" d="m0 0 10 1 5 1v1l-5 1-2 4-5-5z" fill="#71857A"/>
<path transform="translate(541,607)" d="m0 0 2 3 9 4 1 2-9-1-3-2z" fill="#B1B5B2"/>
<path transform="translate(524,605)" d="m0 0h3l2 4-2 6h-3l-1-9z" fill="#4E4F4E"/>
<path transform="translate(841,602)" d="m0 0 11 1 6 1-5 5-1-2h-7l4-2-8-2z" fill="#DADCD7"/>
<path transform="translate(715,590)" d="m0 0 4 1v2h-2l-1 9-4-1z" fill="#80958A"/>
<path transform="translate(1231,361)" d="m0 0 7 1 9 2v2l-12-1-4-1z" fill="#898986"/>
<path transform="translate(597,778)" d="m0 0 13 3-1 3-9-1v-2h-4z" fill="#676767"/>
<path transform="translate(448,592)" d="m0 0h2l1 2 7 2v3l-10-2-1-4z" fill="#ECEDEA"/>
<path transform="translate(468,542)" d="m0 0 5 1 3 3v7l-5-5z" fill="#93A59B"/>
<path transform="translate(921,493)" d="m0 0h3l-1 10-1 3h2v3h-3z" fill="#5A5A59"/>
<path transform="translate(530,242)" d="m0 0h2l1 14 2 6h-2l-4-10z" fill="#5C5D5C"/>
<path transform="translate(605,237)" d="m0 0 3 1-8 6h-2v2l-7 5 1-4z" fill="#6D6E6D"/>
<path transform="translate(415,190)" d="m0 0 5 2-1 5-6-1v-4h2z" fill="#E4E6E1"/>
<path transform="translate(888,850)" d="m0 0 12 2 5 2v1h-7l-10-3z" fill="#8E8C87"/>
<path transform="translate(552,610)" d="m0 0 2 1v3h2v2h2l1-2 1 3h-9v-3l-5-2 4-1z" fill="#8D8B86"/>
<path transform="translate(537,601)" d="m0 0h6l-1 2 2 2-4 1 2 8-3 1-2-13z" fill="#444544"/>
<path transform="translate(555,599)" d="m0 0 4 1 6 3-1 2-16-3v-1z" fill="#B7BCB9"/>
<path transform="translate(514,520)" d="m0 0 3 4v3l8 7-2 1-5-3-5-6z" fill="#14422E"/>
<path transform="translate(1200,378)" d="m0 0 10 2 8 3v1h-6l-12-3z" fill="#949692"/>
<path transform="translate(769,316)" d="m0 0 18 1-4 2h-13z" fill="#898883"/>
<path transform="translate(709,309)" d="m0 0h15l9 2v1h-10l-14-2z" fill="#3B3C3B"/>
<path transform="translate(610,172)" d="m0 0 7 2 3 3-17-2-1-2z" fill="#4E4F4E"/>
<path transform="translate(1159,847)" d="m0 0h2v11l-4-1-1-4h2z" fill="#91908C"/>
<path transform="translate(851,820)" d="m0 0h7v1h-6l-2 4-7 6 1-4 5-5z" fill="#787774"/>
<path transform="translate(617,588)" d="m0 0 4 4 1 8h-3l-2-5 1-5-2-1z" fill="#DCDEDA"/>
<path transform="translate(820,587)" d="m0 0 1 4-5 8-3-1 4-9z" fill="#1A4E38"/>
<path transform="translate(575,484)" d="m0 0 2 3 1 6-2 8h-1l-2-16z" fill="#396150"/>
<path transform="translate(1143,210)" d="m0 0 3 1-2 1v3l4 2-7 1-4-2 1-2h3l-1-3z" fill="#18382A"/>
<path transform="translate(1112,208)" d="m0 0 7 3-4 1h-3-11l1-2z" fill="#C5C9C5"/>
<path transform="translate(449,743)" d="m0 0h6l1 1 11 1v1h-5v2l-13-3z" fill="#585958"/>
<path transform="translate(759,658)" d="m0 0h10l7 1-4 2h-10z" fill="#225841"/>
<path transform="translate(755,573)" d="m0 0 12 1 5 2-1 2-9-1-2-1h-3v-2z" fill="#4E4E4D"/>
<path transform="translate(568,472)" d="m0 0 4 1 4 7-2 5-2-3-3-7z" fill="#244A3A"/>
<path transform="translate(541,258)" d="m0 0 2 1v2h2l1 4 3 3-4-1-6-5-1-3z" fill="#343434"/>
<path transform="translate(813,832)" d="m0 0 4 2 6 9 2 1v2l-4-2-8-10z" fill="#A2A4A1"/>
<path transform="translate(697,801)" d="m0 0 1 3h2l7 11-2 1-9-11z" fill="#B2B5B2"/>
<path transform="translate(607,782)" d="m0 0h8l8 2v2l-10-1-6-2z" fill="#81807D"/>
<path transform="translate(775,630)" d="m0 0h9l-1 5-7-1 2-1v-2z" fill="#EBEDE9"/>
<path transform="translate(701,615)" d="m0 0 10 2 3 2-5 1-10-3z" fill="#1F553E"/>
<path transform="translate(563,610)" d="m0 0 7 1 3 2-4 2-8-1 3-1z" fill="#A6A7A3"/>
<path transform="translate(500,567)" d="m0 0h15l1 2-12 1-4-1z" fill="#474747"/>
<path transform="translate(511,553)" d="m0 0 4 1 4 5 3 6-1 3-6-10-4-3z" fill="#434443"/>
<path transform="translate(594,547)" d="m0 0 6 1 14 2v3l-22-4z" fill="#113424"/>
<path transform="translate(791,491)" d="m0 0h9l-2 4-10 1 3-4z" fill="#959A92"/>
<path transform="translate(686,308)" d="m0 0 17 1-3 2h-9l-5-1z" fill="#8B8985"/>
<path transform="translate(640,171)" d="m0 0h10l1 2-7 1v2h-6v-2l3-1z" fill="#B7BCB9"/>
<path transform="translate(542,166)" d="m0 0h12l1 3h-12z" fill="#E9EBE6"/>
<path transform="translate(637,602)" d="m0 0 3 1 4 8h1v7l-1-4h-2l-5-10z" fill="#515251"/>
<path transform="translate(673,600)" d="m0 0h1v6h2l1 5-5-2-1-1 1-7z" fill="#DADCD7"/>
<path transform="translate(524,453)" d="m0 0h8l10 2 1 2-12-1-7-2z" fill="#777E79"/>
<path transform="translate(1098,305)" d="m0 0h11v3h-11z" fill="#A3A49F"/>
<path transform="translate(542,221)" d="m0 0h5l-5 5h-2v2h-4l2-4z" fill="#6C6C6B"/>
<path transform="translate(827,192)" d="m0 0h3v2l-7 2-3-1-1 2h-2v-2l-3-1z" fill="#233D32"/>
<path transform="translate(413,188)" d="m0 0 4 1-2 1v2h-15v-1l8-1v-1z" fill="#AFB3B0"/>
<path transform="translate(473,185)" d="m0 0 3 3-2 2h-9l4-4z" fill="#333"/>
<path transform="translate(593,771)" d="m0 0h2l-1 5-3 3h-2v2h-3v-2l5-5z" fill="#B6B8B3"/>
<path transform="translate(573,612)" d="m0 0h8l-1 4v-2h-5l-1 4h-3l-2-4z" fill="#6E6F6D"/>
<path transform="translate(752,601)" d="m0 0 3 1v5l-2 2h-3l1-7z" fill="#D1D6D1"/>
<path transform="translate(597,590)" d="m0 0 3 1 2 6h-6l-1-5z" fill="#F0F1F0"/>
<path transform="translate(558,571)" d="m0 0 4 1 1 4-3 5h-2l2-5h-2z" fill="#676765"/>
<path transform="translate(574,561)" d="m0 0 9 1 2 1v11h-1l-2-9-8-3z" fill="#CFD3CE"/>
<path transform="translate(442,557)" d="m0 0 2 1 1 1h2v2l4 2-4 1-2-2-7-1v-2z" fill="#B0B7B3"/>
<path transform="translate(540,505)" d="m0 0h1l1 11-2-1v-2l-3-1v-5h3z" fill="#183025"/>
<path transform="translate(776,493)" d="m0 0 1 2 2 1-2 5-2 3h-2l1-7z" fill="#4D4F4D"/>
<path transform="translate(456,493)" d="m0 0 16 1v3l-6-1h-10z" fill="#1D1C1C"/>
<path transform="translate(519,455)" d="m0 0 4 1-3 1 1 2-7 4h-2l2-5z" fill="#A0A19D"/>
<path transform="translate(806,398)" d="m0 0h8l1 1v5l-6-2v-2h-3z" fill="#383838"/>
<path transform="translate(713,231)" d="m0 0 8 4 1 4-5-2-2-2-2 3z" fill="#484848"/>
<path transform="translate(1148,211)" d="m0 0 4 1-1 4h-8z" fill="#09482E"/>
<path transform="translate(790,649)" d="m0 0 6 2-3 5 3 1h-6z" fill="#103D29"/>
<path transform="translate(773,641)" d="m0 0h5v5h-6v-4z" fill="#F6F6F5"/>
<path transform="translate(731,634)" d="m0 0h6l-1 5h-5l-1-3z" fill="#E4E6E1"/>
<path transform="translate(611,632)" d="m0 0h8v4h-6l-2-1z" fill="#71887C"/>
<path transform="translate(761,629)" d="m0 0h1v6l-2 2h-3l-1-6z" fill="#D8DBD6"/>
<path transform="translate(490,601)" d="m0 0h3v5l6-2 1 3-8 2-2-4z" fill="#D5C3A2"/>
<path transform="translate(737,600)" d="m0 0h5l1 3h2l-1 4-2-2-5-1z" fill="#E0E3DD"/>
<path transform="translate(447,584)" d="m0 0 5 2 2 2v4h-3l-4-5z" fill="#F2F3F1"/>
<path transform="translate(600,580)" d="m0 0 7 1-2 5-2 3z" fill="#858A83"/>
<path transform="translate(558,557)" d="m0 0 9 1 6 2v1l-17-1z" fill="#B7BCB6"/>
<path transform="translate(688,500)" d="m0 0h6l-1 2h-2l-1 5h-3v-6z" fill="#1F2220"/>
<path transform="translate(606,372)" d="m0 0h2v10l-4-1-2-1v-2h4z" fill="#4F504F"/>
<path transform="translate(1231,370)" d="m0 0 12 1 1 3-11-1z" fill="#717271"/>
<path transform="translate(1267,340)" d="m0 0h4v2l8 1 3 2-10-1-6-1z" fill="#9D9F9B"/>
<path transform="translate(813,195)" d="m0 0h4v2l9 1v2h-7v-2h-7z" fill="#63736B"/>
<path transform="translate(716,801)" d="m0 0h3l-1 7-4 2 1-6z" fill="#7C7D7B"/>
<path transform="translate(906,688)" d="m0 0 6 1 3 9h-2l-2-6-5-2z" fill="#CFD1CD"/>
<path transform="translate(708,611)" d="m0 0h4v3l4 1-4 1 1 2-9-2 4-2z" fill="#D8DAD5"/>
<path transform="translate(693,608)" d="m0 0 2 1-4 4-8-1 2-1v-2h6z" fill="#FBFBFB"/>
<path transform="translate(443,581)" d="m0 0 8 1 2 1v2l-14-1-1-2z" fill="#3E4843"/>
<path transform="translate(643,576)" d="m0 0h1l-1 14-2-3-1-9h3z" fill="#718C7E"/>
<path transform="translate(714,567)" d="m0 0h7l3 1v2l-6 1-5-2z" fill="#1C392C"/>
<path transform="translate(784,247)" d="m0 0 3 4 1 5-4 1v-7l-3-1z" fill="#999A97"/>
<path transform="translate(637,217)" d="m0 0 4 1-6 5-5 1 2-4z" fill="#6A6B6A"/>
<path transform="translate(1090,880)" d="m0 0 2 1-9 9-2 1-2 4v-5z" fill="#333"/>
<path transform="translate(665,787)" d="m0 0m-1 1m-2 1 2 1-6 7h5v1h-6l-1-4 4-4z" fill="#464746"/>
<path transform="translate(872,695)" d="m0 0h1v6l-2 4-3-1 1-6 3-1z" fill="#61605E"/>
<path transform="translate(780,660)" d="m0 0 11 3-1 2h-7l-3-3z" fill="#1D553E"/>
<path transform="translate(522,579)" d="m0 0 1 4-5 8-4 2 2-4 5-7z" fill="#484948"/>
<path transform="translate(751,573)" d="m0 0 6 1v2l6-1-1 2-12-1-2-2z" fill="#1A3B2D"/>
<path transform="translate(630,574)" d="m0 0 9 1v9l-3-3-1-4-5-1z" fill="#758A7E"/>
<path transform="translate(435,546)" d="m0 0h6l-3 3-9 1v-2z" fill="#0A5034"/>
<path transform="translate(810,542)" d="m0 0 2 1-2 6-3 4-1-5z" fill="#164833"/>
<path transform="translate(548,509)" d="m0 0 10 1 8 3-4 1-13-3z" fill="#ADB0AC"/>
<path transform="translate(743,264)" d="m0 0 3 1 1 2v8h-2l-2-7z" fill="#878682"/>
<path transform="translate(565,264)" d="m0 0 1 3-6 5-4-1 5-5z" fill="#6B6C6B"/>
<path transform="translate(1112,198)" d="m0 0h9l-1 3-6 1-3-3z" fill="#0D5539"/>
<path transform="translate(910,834)" d="m0 0 9 1 4 2-1 1-9-1-3-1z" fill="#8F8D88"/>
<path transform="translate(757,602)" d="m0 0 2 4-2 6h-2l-1-5z" fill="#181A19"/>
<path transform="translate(722,596)" d="m0 0h3v5l-3 3h-2l1-7z" fill="#D5DAD3"/>
<path transform="translate(677,579)" d="m0 0 6 1-1 2-4 4h-2v-6z" fill="#E6E8E2"/>
<path transform="translate(701,557)" d="m0 0 1 4-8 4v-3z" fill="#2F3230"/>
<path transform="translate(875,496)" d="m0 0 2 3h-2l-1 8-3 3-1-2z" fill="#DAD2C4"/>
<path transform="translate(725,495)" d="m0 0 2 1 3 4-1 8-2-4z" fill="#33453C"/>
<path transform="translate(777,489)" d="m0 0 8 1v2l-5 3h-3z" fill="#114C34"/>
<path transform="translate(986,320)" d="m0 0h9l5 1v3l-3-1-11-1z" fill="#353535"/>
<path transform="translate(1098,209)" d="m0 0 4 2-1 1h-21v-1l17-1z" fill="#979995"/>
<path transform="translate(790,642)" d="m0 0 2 3-3 7-2-3-1 2h-2v-4l4-1z" fill="#9FA9A3"/>
<path transform="translate(616,623)" d="m0 0h3l1 8-4-2-4 1 3-3z" fill="#69746E"/>
<path transform="translate(688,591)" d="m0 0 5 1 3 4-5 1v-2h-2z" fill="#C7CDC7"/>
<path transform="translate(534,557)" d="m0 0 2 3v14h-1v-10h-2v-6z" fill="#A7B1AB"/>
<path transform="translate(529,552)" d="m0 0h11l-4 2-3 3h-2v-3h-2z" fill="#0F3022"/>
<path transform="translate(606,435)" d="m0 0h8l2 3-3 4-2-1v-5h-5z" fill="#045233"/>
<path transform="translate(619,435)" d="m0 0 8 1 2 2h-11l-3-2z" fill="#074C30"/>
<path transform="translate(719,312)" d="m0 0h14l-4 3-10-1z" fill="#8F8D88"/>
<path transform="translate(761,235)" d="m0 0h2l-1 4-1 2-4 1-2-2 3-3z" fill="#7A7A78"/>
<path transform="translate(575,227)" d="m0 0 1 3-5 5-4 1v-3h3l2-4z" fill="#8E8D88"/>
<path transform="translate(1136,208)" d="m0 0h11l-1 2-3 1h-8z" fill="#B8BBB8"/>
<path transform="translate(832,830)" d="m0 0 4 1-1 4-3 4-2-1z" fill="#878784"/>
<path transform="translate(656,786)" d="m0 0h3v4l-5 4-1 2h-2l2-4z" fill="#AAACA8"/>
<path transform="translate(884,702)" d="m0 0 4 1h-2v5l-5-1 1-4z" fill="#838380"/>
<path transform="translate(844,668)" d="m0 0 6 2-7 7v-3z" fill="#EAEBE7"/>
<path transform="translate(626,635)" d="m0 0 8 2-1 2-10-1z" fill="#71847A"/>
<path transform="translate(718,619)" d="m0 0h9v4l-3 1-1-2-5-1z" fill="#31443B"/>
<path transform="translate(743,611)" d="m0 0 3 2v7h-5z" fill="#1E4031"/>
<path transform="translate(766,602)" d="m0 0 2 1-1 7-2 1-2 3 1-8z" fill="#215C44"/>
<path transform="translate(706,565)" d="m0 0h7l5 1-4 2h-7z" fill="#47524C"/>
<path transform="translate(790,524)" d="m0 0 5 1 3 1v2h2v2l-4-1-6-3z" fill="#182C23"/>
<path transform="translate(605,218)" d="m0 0 2 1 1 2-10 4-2-2z" fill="#858683"/>
<path transform="translate(1121,199)" d="m0 0 1 2h3v2h-3l-1 2-5-1v-2z" fill="#103424"/>
<path transform="translate(689,185)" d="m0 0h6v2l-3 1h-9l1-2z" fill="#F4F5F2"/>
</svg>
