<?xml version="1.0" encoding="UTF-8"?>
<svg version="1.1" viewBox="0 0 2048 942" width="963" height="443" xmlns="http://www.w3.org/2000/svg">
<path transform="translate(1218,256)" d="m0 0h280l28 2 18 3 21 6 12 6 13 11 8 9 7 14 4 15 3 17v13l-2 12-8 26-9 17-11 14-9 10-9 9-17 13-20 13-21 12-18 10-16 8-28 11-5 3v9l5 21 8 22 11 25 8 18 17 32 8 14 11 16 9 16 8 11v3l-18 10-48 24-38 17-21 8-12 3-4-1-9-14-10-16-8-13-15-28-8-14-14-32-13-32-16-48-8-32-7-30-3-10h-2l-4 10-15 47-6 16-14 45-10 28-9 24-7 23-5 13-4 3h-137l-5-2v-7l5-16 15-42 9-27 11-30 10-30 13-35 13-38 10-27 13-38 11-29 4-14 109-1 27-1 5 1v9l-3 17-6 23-8 20-13 34-6 16v2l6-1 42-19 22-12 15-8 25-15 12-8 14-11 7-6h2l2-4 8-11 4-7 1-4v-11l-3-6v-2l-12-2-21-1h-228l-15 1-3-3 1-5 16-24 19-29 11-17 10-14 7-7z" fill="#FDFDFD"/>
<path transform="translate(1758,256)" d="m0 0h274l1 1 1 29v69l-2 1h-213l-6 1-7 25-9 24-2 5v5l8 1h161l25 1-2 12-7 14-11 16-15 20-12 19-10 13-4 4-7 3-6 1-153 1-3 2-6 16-7 18-12 26-1 3 5 3 4 1 140 1 80 1-1 7-11 23-6 10-14 17-7 10-11 20-7 10-5 2-6 4h-336l-1-1v-8l5-19 17-47 10-29 10-27 14-41 12-34 9-26 11-30 13-38 11-30 10-30 10-26 10-31 6-16 3-5z" fill="#FDFDFD"/>
<path transform="translate(579,256)" d="m0 0h316l2 1 1 8 1 32v53l-3 5-10 1h-192l-17 1-1 9-14 41-2 10h172l21 1-1 9-5 12-6 10-14 19-10 15-11 16-10 13-4 6h-3l-5 2-157 1-5 1-1 7-13 40-11 27-7 21-8 27-5 21-5 31-7 5-40 16-22 10-34 14-19 9-27 10h-5l-2-7-1-9v-17l2-19 6-23 15-46 15-41 15-45 7-19 12-35 10-27 12-36 21-62 15-42 15-43 11-28 3-4z" fill="#FDFDFD"/>
<path transform="translate(593,17)" d="m0 0h4l-2 4-10 8-15 13-15 14-15 15h-2v2h-2l-2 4-3 1v2h-2v2h-2l-2 4-12 12-7 8-13 14-9 11-9 10-9 11-12 15-8 11-14 19-12 17-25 38-19 32-12 21-14 26-15 29-13 27-9 20-7 16-11 27-9 23-13 36-8 22-13 42-11 39-12 49-9 40-12 67-9 64-3 26-3 42-1 3h-163l12-40 18-56 16-47 13-35 13-34 16-39 13-31 16-36 16-35 11-22 11-23 17-33 9-16 16-29 16-27 12-20 11-17 12-19 19-28 16-23 14-19 13-17 12-15 10-13 11-13 9-11 14-15 7-8 16-17 11-12 33-33 8-7 16-15 11-9 14-12 14-11 15-12 18-13 17-12 13-9z" fill="#FEFEFE"/>
<path transform="translate(975,256)" d="m0 0h138v18l-5 15-10 26-9 26-16 45-16 46-6 16-7 21-5 13-14 43-14 37-9 24-9 27-12 34-13 37-5 12-3 2h-34l-105-1-1-2 1-11 6-20 16-44 10-30 13-35 9-27 13-35 13-38 13-37 10-29 9-23 12-36 13-36 7-22 5-12 2-3z" fill="#FEFEFE"/>
<path transform="translate(1303,361)" d="m0 0 6 1v9l-3 9-7 25-2 2-1-1-10 25-5 16-6 22-3 3-1 5-14 43-9 26-15 41-9 24-19 57-9 24-2 4-37 2h-98l-5-2v-7l5-16 15-42 9-27 11-30 10-30 13-35 13-38 10-27 13-38 11-29 4-14 109-1z" fill="#FDFDFD"/>
<path transform="translate(601,152)" d="m0 0h32l12 2 5 3 3 6v8l-4 7-4 4h-2v3l4 2 3 5v10l-4 6-6 5-8 3h-44l1-8 11-55zm12 11-2 6-1 9 6 1h10l7-1 5-6-1-7-3-2zm-5 26-2 6-1 11h20l7-2 3-4 1-6-3-4-3-1z" fill="#FEFEFE"/>
<path transform="translate(862,152)" d="m0 0h30l10 2 6 4 4 5 2 11-3 10-7 8-6 4h-3l11 19-3 2-13-1-9-16-4-1h-9l-3 16-4 2-12-1 5-26 7-35zm12 12-4 20v3h18l7-4 3-4v-10l-4-4-3-1z" fill="#FDFDFD"/>
<path transform="translate(801,152)" d="m0 0h47l-1 11-1 1h-33l-3 14h22l8 1-2 10-30 1-3 15h35l-2 11h-50l1-9 11-54z" fill="#FDFDFD"/>
<path transform="translate(983,152)" d="m0 0h13l15 60-1 5-13-1-2-9v-4h-33l-2 6-4 7h-16l7-11 10-16 15-23 7-11zm1 15-9 16-4 8h20l-1-9-3-13-1-2z" fill="#FDFDFD"/>
<path transform="translate(693,152)" d="m0 0h14l11 44 4 17v3h-14l-2-8v-5h-33l-2 6-4 7h-16l7-12 18-27 14-23zm2 15-8 14-5 8v2h20l-2-13-3-11z" fill="#FDFDFD"/>
<path transform="translate(1045,151)" d="m0 0h16l13 4 1 2-5 10-10-3-10-1-9 3-2 2v5l7 4 15 5 7 5 2 4v10l-6 9-5 4-10 3h-19l-11-4-3-2 1-6 3-5 5 1 11 4h12l6-3 1-4-1-3-10-4-13-5-5-5-2-3v-10l4-8 8-6z" fill="#FEFEFE"/>
<path transform="translate(1112,263)" d="m0 0h1v11l-5 15-10 26-9 26-16 45-16 46-6 16-7 21-5 13-14 43-14 37-9 24-9 27-12 34-13 37-5 12-3 2h-15v-1l12-1 4-8 18-48 13-37 18-51 7-20 12-33 12-36 17-49 14-39 29-87 7-19z" fill="#D2D0D0"/>
<path transform="translate(1609,327)" d="m0 0h1l2 12v13l-2 12-8 26-9 17-11 14-9 10-9 9-17 13-20 13-21 12-18 10-16 8-23 9-8 2-6 1 1-3 17-7 21-10 22-12 18-10 24-16 14-11 26-26 10-13 9-15 5-13 3-14 3-28z" fill="#D1CFCF"/>
<path transform="translate(736,152)" d="m0 0h55l-1 11-1 1h-20l-5 25-5 26-4 2-11-1 1-9 8-41 1-2h-21l2-11z" fill="#FDFDFD"/>
<path transform="translate(1307,376)" d="m0 0 1 2-6 26-5 14-17 44-7 19 1 4-2 4h-2l-4 10-15 47-6 16-14 45-10 28-9 24-7 23-5 13-4 3h-38v-1l36-2 9-25 14-41 12-35 6-15 14-39 21-63 2-7 3-1 2-12 7-22 12-32 2 2 8-28z" fill="#D1D0D0"/>
<path transform="translate(930,152)" d="m0 0h14l1 2-12 59-1 3h-15l5-25 7-36z" fill="#FDFDFD"/>
<path transform="translate(621,524)" d="m0 0 1 2-14 43-11 27-7 21-8 27-5 21-4 27-2-3-3 6h-2l5-25 8-32 18-55 10-26 9-24z" fill="#D1CFCF"/>
<path transform="translate(851,423)" d="m0 0 1 4-5 12-6 10-14 19-10 15-11 16-10 13-4 6-2-4 8-15 27-40 14-19 9-13z" fill="#D1CFCF"/>
<path transform="translate(1987,423)" d="m0 0 1 3-4 11-10 16-14 19-10 14-10 16-9 11-3 3-4-1 10-16 10-15 12-17 18-26 6-9z" fill="#D4D2D2"/>
<path transform="translate(1522,695)" d="m0 0h2v2l-18 10-48 24-38 17-21 8-4-1 40-20 29-13 56-26z" fill="#D1CFCF"/>
<path transform="translate(1307,376)" d="m0 0 1 2-6 26-5 14-17 44-7 19 1 4-2 4h-2l-4 10-2-1 1-6 5-15 2-7 3-1 2-12 7-22 12-32 2 2 8-28z" fill="#D1CFCF"/>
<path transform="translate(571,692)" d="m0 0 1 4-7 5-40 16-22 10-34 14-19 9-27 10-4-1 48-20 29-12 40-18 25-10 8-4z" fill="#D1CFCF"/>
<path transform="translate(1956,606)" d="m0 0 1 2-12 23-11 13-10 13-12 22-7 10h-3l2-6 9-15 19-28 10-14 8-12z" fill="#D3D1D1"/>
<path transform="translate(1757,521)" d="m0 0 3 1-5 12-8 21-9 20-1-3 11-29 6-15z" fill="#D1CFCF"/>
<path transform="translate(465,740)" d="m0 0m-3 1h3v2l-18 8-24 9-4-1 12-5z" fill="#D1CFCF"/>
<path transform="translate(571,692)" d="m0 0 1 4-7 5-30 12-3-1 4-3 25-10 8-4z" fill="#D3D2D2"/>
<path transform="translate(1264,498)" d="m0 0h1l-1 8-5 15-2-1 2-10 4-11z" fill="#DFDEDE"/>
<path transform="translate(1902,690)" d="m0 0" fill="#D1CFCF"/>
<path transform="translate(1903,689)" d="m0 0" fill="#FEFEFE"/>
</svg>
