<?xml version="1.0" encoding="UTF-8"?>
<svg version="1.1" viewBox="0 0 2048 2048" width="4000" height="4000" xmlns="http://www.w3.org/2000/svg">
<path transform="translate(1197,410)" d="m0 0h247l30 1 27 3 20 5 13 5 8 5 15 14 7 11 5 14 4 21v15l-2 13-8 24-5 10-8 11-9 12-11 11-11 9-15 11-16 10-23 13-10 6-10 5-20 8-16 7-2 3v9l2 7 2 11 5 13 8 20 6 13 8 18 12 22 6 12 6 9 4 7 8 11 6 12 6 7 1 6-5 5-16 9-13 6-18 10-14 6-11 5-20 9-14 5-9 4-12 1-7-6-9-16-8-11-7-12-7-14-9-16-6-12-10-23-6-13-6-16-3-9-6-16-9-28-4-14-4-20-7-28-5 1-14 41-3 10-6 16-5 17-6 19-6 17-8 23-6 15-6 22-4 10-5 4-3 1h-130l-4-4v-7l6-17 8-23 6-16 2-9 14-36 5-16 4-13 8-20 12-34 3-10 6-16 5-15 3-6 4-13 3-9 6-17 7-18 5-14 3-7 4-3h60l55-1h13l3 3v14l-7 26-2 8-4 9-10 26-9 24 1 5 8-1 8-4 13-5 16-8 10-6 17-8 10-6 16-10 12-7 18-14 10-9 7-10 5-10v-14l-3-4v-2l-26-3h-18l-54 1h-27l-12-1-93-1-19 1-13 1-4-2-1-4 5-10 8-10 5-9 11-16 8-13 10-15 6-8 5-6z" fill="#FEFEFE"/>
<path transform="translate(1819,410)" d="m0 0h154l4 2 2 7 1 80-2 6-4 2h-199l-8 2-5 17-4 14-8 19 1 4 5 2 176 1 3 3-1 10-7 14-9 12-4 6-4 5-6 8-8 13-12 17-9 8-6 2-82 1h-62l-10 4-5 13-3 7-3 9-7 15-4 10v5l5 4 207 2 3 1 1 2v6l-9 17-6 12-10 12-4 6-5 5-9 17-7 11-5 5-10 5h-320l-4-3v-7l5-18 6-15 6-17 6-16 5-17 8-20 6-17 5-16 7-20 3-7 6-17 7-23 3-7 8-21 6-17 2-5 2-9 11-29 6-17 6-19 5-13 7-18 8-24 5-16 5-10 4-3 4-1z" fill="#FEFEFE"/>
<path transform="translate(775,410)" d="m0 0h98l9 2 3 5 1 7 1 71-2 8-4 3-3 1h-187l-17 2-2 10-10 26-4 13v5l3 2 176 1 4 3v7l-3 9-8 13-10 13-9 13-6 10-7 9-12 16-3 3-12 3h-134l-10 1-6 3-3 9-6 16-4 14-4 11-3 7-9 24-6 20-3 11-5 16-5 32-3 6-5 4-21 9-16 6-21 10-28 11-16 8-15 6-17 6h-6l-3-4-2-15 1-20 2-15 4-15 3-8 9-29 13-35 6-17 15-45 6-16 9-27 7-19 6-17 4-14 6-15 17-51 6-17 8-22 6-17 3-10 6-17 8-20 5-13 4-4 4-2z" fill="#FEFEFE"/>
<path transform="translate(582,188)" d="m0 0h2l-1 4-8 7-3 3h-2v2l-8 6-5 6-8 7-24 24-14 16h-2l-2 4-7 7-7 8-9 11-12 14-9 11-8 11-14 19-9 12-16 24-8 13-7 10-18 30-12 21-9 17-16 30-9 19-12 26-4 9-5 11-6 16-4 9-5 12-6 16-6 17-6 16-3 9-5 14-5 17-5 16-5 17-4 14-5 18-2 12-3 10-4 15-6 28-2 6-3 16-3 20-3 16-3 14-3 21-3 24-2 8-2 22-2 11-3 36-1 10-4 4h-148l-3-1-1-5 3-10 8-26 8-24 5-18 4-11 9-27 3-7 5-16 4-9 3-8 6-17 6-15 6-16 7-17 8-19 10-24 7-17 4-8 5-12 6-12 4-9 10-22 16-32 17-33 10-17 4-8 13-23 13-22 6-10 7-12 7-11 7-10 6-10 12-18 7-10 9-13 10-14 9-12 8-11 13-16 10-13 9-12 5-5 12-14 9-10 15-16 4-5h2l2-4 15-16 20-20 8-7 17-16 11-10 11-9 13-11 12-9 10-8 11-8 14-10 12-8z" fill="#FEFEFE"/>
<path transform="translate(967,410)" d="m0 0h117l6 2 3 5v10l-6 18-6 16-4 10-5 17-3 6-10 29-10 28-7 21-9 24-5 16-7 18-6 20-4 10-6 19-9 22-6 17-5 13-5 16-7 20-6 16-7 21-6 16-3 9-5 6-3 1h-127l-4-2-1-2v-9l5-18 6-14 3-10 6-15 7-22 4-11 7-20 6-15 3-11 8-22 5-13 6-17 6-18 6-17 3-7 3-10 6-17 6-18 7-19 3-6 4-11 6-21 6-15 7-20 5-14 3-11 7-16 7-4z" fill="#FEFEFE"/>
<path transform="translate(600,311)" d="m0 0h38l8 4 3 6v8l-3 6-4 5 1 4 3 3 1 3v8l-6 8-4 3-7 3-6 1h-33l-4-2 2-11 2-13 2-7 2-13 3-14zm14 9-4 4-2 10 3 2h18l5-4 1-7-5-4-4-1zm-6 26-3 4-2 9 4 3h15l8-2 2-4v-6l-3-3-4-1z" fill="#FEFEFE"/>
<path transform="translate(853,311)" d="m0 0h32l7 3 5 4 4 10-1 9-5 8-8 7-2 1 1 6 5 9v4l-3 1h-7l-4-2-7-13-5-2h-6l-2 1-5 15-2 1h-8l-3-2 2-15 2-7 2-13 2-7 2-13 2-4zm12 11-4 4-2 16 2 2h15l7-4 2-3v-11l-4-3-4-1z" fill="#FEFEFE"/>
<path transform="translate(792,311)" d="m0 0h43l2 2-1 6-2 2-4 1-26 1-2 12 25 1 1 1v6l-3 4-25 1-3 7-1 5 31 1 1 1v7l-1 3-2 1h-42l-3-1-1-3 2-7 3-17 4-20 3-13z" fill="#FEFEFE"/>
<path transform="translate(688,311)" d="m0 0h12l4 7 2 12 3 10 2 9 2 7 2 9 1 6-4 2-9-1-2-3-2-8-6-1h-19l-5 1-6 10-4 2h-7l-3-1 1-4 6-11h2l2-5 9-14 7-11 10-15zm1 16-8 13-2 4 1 4h16v-9l-3-10z" fill="#FEFEFE"/>
<path transform="translate(967,311)" d="m0 0h11l4 6 3 14 2 6 2 10 2 6 3 14v5l-9 1-5-3-2-9-6-1h-19l-6 2-6 10-3 1h-7l-4-2 8-14 6-9 7-11 16-24zm1 16-7 11-4 8 1 2h16l1-1-1-10-4-10z" fill="#FEFEFE"/>
<path transform="translate(1028,310)" d="m0 0h14l10 2 2 2-1 7-3 3-8-2-3-1h-9l-8 4v6l7 4 9 3 7 3 5 6 1 2v8l-3 7-6 5-5 3-4 1h-21l-10-4-2-1v-7l4-4 4 1 5 2 5 1h11l6-2 1-5-3-4-12-4-9-4-4-4-1-3v-9l2-6h2l2-4 6-4z" fill="#FEFEFE"/>
<path transform="translate(730,311)" d="m0 0h51l1 1v6l-3 3-2 1-14 1-3 5-4 21-4 19-2 4-2 1h-9l-2-5 6-30 2-9-1-6-14-1-2-3 1-7z" fill="#FEFEFE"/>
<path transform="translate(918,311)" d="m0 0h10l2 2-2 12-4 21-4 20-3 6-1 1h-9l-2-1v-8l3-12 3-17 4-20z" fill="#FEFEFE"/>
<path transform="translate(586,186)" d="m0 0" fill="#FEFEFE"/>
</svg>
